<svg xmlns="http://www.w3.org/2000/svg" width="1024" height="278" viewBox="0 0 339.56 92.23" shape-rendering="geometricPrecision" text-rendering="geometricPrecision" image-rendering="optimizeQuality" fill-rule="evenodd" clip-rule="evenodd"><defs><style>.fil0,.fil1{fill:#025287;fill-rule:nonzero}.fil1{fill:#f60}</style><radialGradient id="id0" gradientUnits="userSpaceOnUse" gradientTransform="rotate(-90 48 57) scale(1.18794)" cx="47.96" cy="47.96" r="21.8" fx="47.96" fy="47.96"><stop offset="0" stop-color="#ff6"/><stop offset="1" stop-color="#f60"/></radialGradient></defs><g id="Layer_x0020_1"><g id="_2921599793024"><path class="fil0" d="M123.33 30.29c0 1.3-.25 2.44-.74 3.43-.49.98-1.16 1.79-1.98 2.44-.99.76-2.07 1.32-3.25 1.65-1.18.33-2.68.49-4.49.49h-10.48V12.14h9.25c1.93 0 3.38.08 4.37.23 1 .14 1.93.45 2.8.91.93.51 1.63 1.18 2.1 2.02.46.85.69 1.82.69 2.92 0 1.28-.32 2.41-.96 3.41-.63.99-1.52 1.73-2.64 2.19v.15c1.61.34 2.9 1.03 3.87 2.08.97 1.05 1.46 2.46 1.46 4.24zm-8.42-10.76c0-.42-.11-.86-.32-1.3a2.01 2.01 0 0 0-1.02-.97c-.43-.19-.94-.29-1.53-.31-.6-.01-1.48-.02-2.65-.02h-.45v5.54h.82c1.13 0 1.91-.01 2.37-.04.45-.02.91-.14 1.39-.37.53-.24.89-.58 1.09-1.02.2-.43.3-.93.3-1.51zm1.65 10.65c0-.81-.16-1.44-.49-1.9-.33-.46-.82-.8-1.47-1.03-.4-.16-.95-.24-1.65-.26-.7-.02-1.63-.02-2.8-.02h-1.21v6.54h.35c1.71 0 2.89-.01 3.55-.03a5.56 5.56 0 0 0 2-.48c.6-.25 1.03-.63 1.31-1.13.28-.5.41-1.06.41-1.69z"/><path id="1" class="fil0" d="M132.86 38.3h-6.15V18.58h6.15V38.3zm.18-22.52h-6.51v-4.79h6.51v4.79z"/><path id="2" class="fil0" d="M156.06 38.3h-6.15v-9.78c0-.79-.03-1.58-.1-2.38-.07-.79-.19-1.37-.37-1.74-.21-.44-.51-.77-.91-.96-.4-.19-.94-.29-1.61-.29-.51 0-1.02.1-1.54.28-.52.19-1.07.49-1.66.9V38.3h-6.15V18.58h6.15v2.19c1.01-.86 1.99-1.53 2.94-2.01.96-.48 2.02-.72 3.17-.72 2.02 0 3.56.64 4.63 1.91 1.06 1.27 1.6 3.11 1.6 5.52V38.3z"/><path id="3" class="fil0" d="M171.46 33.15v-4.13c-1.03.1-1.87.19-2.51.27-.64.07-1.26.22-1.88.45-.53.19-.95.48-1.24.85-.3.39-.45.9-.45 1.53 0 .93.25 1.57.74 1.91.5.35 1.22.53 2.19.53.53 0 1.08-.13 1.63-.38.56-.24 1.07-.59 1.52-1.03zm0 3.06c-.42.35-.8.67-1.13.95-.33.27-.78.56-1.34.84-.55.27-1.08.48-1.6.62-.52.15-1.24.22-2.18.22-1.74 0-3.18-.59-4.33-1.77-1.15-1.17-1.72-2.65-1.72-4.43 0-1.47.29-2.66.87-3.56.58-.9 1.42-1.62 2.52-2.15 1.11-.54 2.44-.92 3.98-1.13 1.54-.21 3.19-.37 4.97-.49v-.11c0-1.08-.4-1.84-1.2-2.25-.8-.42-2-.63-3.59-.63-.73 0-1.57.14-2.54.4s-1.91.6-2.84 1.01h-.52v-4.77c.61-.18 1.59-.39 2.95-.63s2.73-.36 4.11-.36c3.39 0 5.86.57 7.42 1.7 1.55 1.13 2.32 2.86 2.32 5.19V38.3h-6.15v-2.09z"/><path id="4" class="fil0" d="M195.41 24.41h-.51c-.24-.08-.58-.15-1.03-.19-.44-.04-.94-.06-1.48-.06-.65 0-1.32.1-2.03.28-.71.19-1.4.41-2.08.67V38.3h-6.15V18.58h6.15v2.83c.29-.26.68-.58 1.18-.97.5-.4.95-.71 1.36-.94.45-.27.97-.5 1.57-.7.59-.19 1.15-.29 1.68-.29.2 0 .42.01.67.02.24.01.47.03.67.05v5.83z"/><path id="5" class="fil0" d="M216.15 18.58l-9.94 26.95h-6.61l2.99-7.71-7.23-19.24h6.46l4.13 12.37 3.88-12.37z"/><path id="6" class="fil0" d="M252.55 12.14l-6.62 26.16h-7.2l-4.19-16.18-4.05 16.18h-7.23l-6.62-26.16h6.83l3.6 17.5 4.37-17.5h6.52l4.15 17.55 3.79-17.55z"/><path id="7" class="fil0" d="M265.54 38.84c-3.73 0-6.59-.89-8.58-2.67-1.99-1.78-2.98-4.32-2.98-7.61 0-3.22.93-5.79 2.78-7.71 1.85-1.92 4.45-2.88 7.78-2.88 3.03 0 5.3.82 6.83 2.45 1.53 1.62 2.29 3.96 2.29 7v2.21h-13.53c.06.92.25 1.68.58 2.29.33.62.76 1.11 1.31 1.47.53.36 1.14.63 1.85.78.7.16 1.47.24 2.3.24.72 0 1.43-.08 2.12-.24.7-.16 1.33-.37 1.91-.63.5-.23.97-.47 1.39-.73.44-.27.78-.5 1.05-.7h.66v5.09c-.51.2-.97.38-1.38.55-.42.18-.99.35-1.72.52-.67.18-1.36.32-2.06.42-.72.1-1.58.15-2.6.15zm2.07-12.92c-.03-1.31-.34-2.31-.91-3-.57-.68-1.45-1.03-2.63-1.03-1.21 0-2.15.36-2.83 1.09-.68.72-1.05 1.7-1.13 2.94h7.5z"/><path id="8" class="fil0" d="M289.84 28.3c0-1.96-.3-3.37-.89-4.21-.6-.84-1.53-1.26-2.77-1.26-.55 0-1.09.09-1.64.26-.55.18-1.08.44-1.61.79v9.9c.41.16.82.27 1.24.33.42.06.83.09 1.24.09 1.49 0 2.6-.5 3.33-1.48s1.1-2.45 1.1-4.42zm6.29-.12c0 3.13-.79 5.67-2.39 7.61-1.59 1.93-3.56 2.9-5.92 2.9-.98 0-1.84-.11-2.57-.33-.72-.23-1.5-.58-2.32-1.05l-.26.99h-5.89V10.96h6.15v9.69c.91-.78 1.83-1.41 2.76-1.89.94-.48 2.03-.72 3.26-.72 2.29 0 4.07.9 5.31 2.69 1.25 1.79 1.87 4.28 1.87 7.45z"/><path id="9" class="fil1" d="M305.91 38.3h-6.22v-6.91h6.22z"/><path id="10" class="fil1" d="M316.9 38.3h-6.15V18.58h6.15V38.3zm.18-22.52h-6.51v-4.79h6.51v4.79z"/><path id="11" class="fil1" d="M339.56 38.3h-6.15v-2.06c-.4.33-.86.68-1.37 1.06-.51.37-.96.65-1.35.84-.49.24-.97.41-1.46.52-.48.12-1.05.18-1.72.18-2.26 0-4.05-.93-5.36-2.79-1.32-1.87-1.98-4.35-1.98-7.46 0-1.72.22-3.21.67-4.47.45-1.27 1.06-2.37 1.85-3.31.72-.85 1.59-1.52 2.61-2.02 1.02-.5 2.1-.75 3.25-.75 1.03 0 1.88.11 2.54.33.67.21 1.44.56 2.32 1.01v-8.42h6.15V38.3zm-6.15-5.43v-9.73c-.3-.15-.71-.28-1.2-.38-.5-.1-.92-.15-1.27-.15-1.49 0-2.6.52-3.35 1.56-.75 1.03-1.12 2.48-1.12 4.34 0 1.95.3 3.37.89 4.24.59.86 1.56 1.3 2.89 1.3.54 0 1.09-.11 1.64-.31.56-.21 1.06-.5 1.52-.87z"/><path id="12" class="fil0" d="M105.61 66.57l-.24.53c-1.22 2.52-2.03 4.32-2.44 5.4-.64 1.68-.99 2.66-1.07 2.94-.25.79-.57 1.18-.97 1.18-.28 0-.52-.13-.72-.39-.17-.23-.26-.47-.26-.72 0-1 1.28-4.18 3.85-9.54-.46-.34-.69-.7-.69-1.05 0-.27.11-.5.35-.7.19-.16.41-.25.64-.25.16 0 .37.04.64.13 1.92-3.64 3.04-5.96 3.36-6.96-.29.16-.66.4-1.12.7-.26.17-.48.25-.69.25-.22 0-.4-.11-.54-.34a.889.889 0 0 1-.14-.47c0-.55.47-1.14 1.42-1.77.77-.5 1.47-.92 2.13-1.26.11-.28.17-.47.2-.58.11-.44.24-.74.36-.89.13-.15.33-.23.6-.23.55 0 .83.31.83.92.81-.24 1.52-.41 2.14-.53.63-.11 1.16-.17 1.59-.17 1.14 0 2.1.43 2.88 1.3.74.82 1.11 1.74 1.11 2.76 0 1.77-.74 3.54-2.21 5.31-1.27 1.5-2.83 2.67-4.7 3.52-1.62.71-3.23 1.07-4.85 1.07-.39 0-.87-.05-1.46-.16zm4.9-10.72c-.39 1.16-1.01 2.65-1.9 4.46-1.08 2.2-1.78 3.64-2.09 4.32.64.13 1.1.19 1.36.19 1.33 0 2.89-.54 4.67-1.62 1.73-1.05 3.08-2.36 4.05-3.92.6-.95.9-1.79.9-2.53 0-.67-.23-1.17-.68-1.5-.45-.34-1.13-.51-2.05-.51-.69 0-1.39.09-2.1.27-.71.19-1.43.47-2.16.84z"/><path id="13" class="fil0" d="M121.25 63.63c.95 0 1.43.59 1.43 1.76 0 1.55-.72 3.52-2.15 5.91-1.57 2.58-3.08 3.88-4.54 3.88-.67 0-1.17-.32-1.48-.95-.16-.32-.25-.7-.25-1.14 0-1.5.52-3.12 1.54-4.88.96-1.62 2.08-2.89 3.38-3.79.76-.53 1.45-.79 2.07-.79zm-1.82 6.64c-.29-.24-.44-.42-.44-.55 0-.09.19-.35.56-.77 1.06-1.19 1.58-2.14 1.58-2.87a.54.54 0 0 0-.09-.28.464.464 0 0 0-.43-.26c-.38 0-.93.36-1.65 1.09-.94.93-1.65 1.9-2.14 2.89-.58 1.14-.87 2.08-.87 2.83 0 .21.06.38.16.53.15.21.35.32.58.32.56 0 1.16-.42 1.81-1.27.28-.35.51-.71.68-1.09.18-.37.26-.57.25-.57z"/><path id="14" class="fil0" d="M128.97 70.06c-1.01 1.36-1.75 2.29-2.23 2.81-.6.65-1.12 1.14-1.55 1.47-.49.37-.95.55-1.37.55-.41 0-.73-.2-.95-.61-.17-.32-.26-.67-.26-1.06 0-1.27.76-3.03 2.28-5.26 1.38-2.02 2.41-3.04 3.08-3.04.16 0 .32.08.47.23.14.14.21.31.21.49 0 .26-.23.62-.68 1.08-.98.96-1.82 2.04-2.54 3.25-.61 1.02-.92 1.7-.92 2.01 0 .24.11.36.32.36.7 0 2.23-1.53 4.58-4.57.76-.99 1.22-1.55 1.38-1.71.31-.28.62-.42.94-.42.21 0 .39.06.54.18.13.12.19.24.19.37 0 .14-.28.73-.84 1.77-1.28 2.23-1.93 3.75-1.93 4.53 0 .31.13.46.38.46.42 0 1-.49 1.74-1.46.7-.91 1.35-2.07 1.95-3.47.26-.61.49-1.41.68-2.4.24-1.13.71-1.7 1.42-1.7.4 0 .6.22.6.66 0 1.54-.86 3.65-2.57 6.33-1.78 2.8-3.28 4.2-4.5 4.2-.9 0-1.35-.56-1.35-1.68 0-.91.31-2.04.93-3.37z"/><path id="15" class="fil0" d="M137.82 71.58v.31c0 .26.07.48.2.67.29.42.77.64 1.44.64 1.46 0 3.16-1.13 5.07-3.38.35-.38.63-.57.87-.57.12 0 .24.06.35.19.07.1.1.18.1.26 0 .46-.56 1.23-1.68 2.32-.88.86-1.82 1.56-2.81 2.1-1 .54-1.92.81-2.78.81-.88 0-1.57-.31-2.08-.92-.34-.42-.51-.99-.51-1.72 0-1.98.93-3.91 2.79-5.81 1.51-1.54 2.83-2.31 3.95-2.31.31 0 .58.1.83.28.3.25.45.57.45.97 0 .61-.28 1.38-.85 2.28-1.19 1.87-2.96 3.17-5.34 3.88zm.4-1.37c.82-.28 1.46-.6 1.93-.95.82-.63 1.46-1.35 1.94-2.15.18-.28.27-.53.27-.75 0-.24-.12-.36-.34-.36-.3 0-.73.23-1.29.69-1 .81-1.84 1.98-2.51 3.52z"/><path id="16" class="fil0" d="M149.52 69.19c1.14-1.23 2.47-2.43 3.97-3.61.54-.42 1.11-.81 1.72-1.18.3-.18.49-.27.58-.27.17 0 .35.13.53.39.1.13.15.27.15.38 0 .21-.22.5-.66.86-1.19.95-1.78 1.66-1.78 2.14 0 .27.15.4.45.4.5 0 1.36-.41 2.58-1.25.21-.13.38-.21.52-.21.1 0 .19.05.28.15.1.1.16.21.16.33 0 .35-.49.89-1.47 1.62-1.03.78-2 1.16-2.93 1.16-.37 0-.71-.1-1.03-.29-.27-.17-.4-.46-.4-.88 0-.29.13-.63.37-1-.93.65-2.02 1.78-3.28 3.37-.72.99-1.44 2.2-2.16 3.64-.27.54-.61.81-1 .81-.44 0-.66-.2-.66-.61 0-.4.35-1.47 1.02-3.2 1.02-2.57 2.07-4.57 3.17-5.98.68-.89 1.25-1.32 1.71-1.32.15 0 .29.04.42.13.15.12.23.27.23.45 0 .17-.12.42-.35.74-.04.05-.36.45-.93 1.17-.53.69-.93 1.38-1.21 2.06z"/><path id="17" class="fil0" d="M158.69 71.58v.31c0 .26.07.48.19.67.3.42.78.64 1.44.64 1.47 0 3.16-1.13 5.08-3.38.34-.38.63-.57.86-.57.13 0 .25.06.35.19.07.1.11.18.11.26 0 .46-.57 1.23-1.69 2.32-.88.86-1.81 1.56-2.81 2.1-.99.54-1.92.81-2.77.81-.89 0-1.58-.31-2.09-.92-.34-.42-.5-.99-.5-1.72 0-1.98.92-3.91 2.79-5.81 1.5-1.54 2.82-2.31 3.94-2.31.31 0 .59.1.83.28.31.25.46.57.46.97 0 .61-.29 1.38-.86 2.28-1.18 1.87-2.96 3.17-5.33 3.88zm.4-1.37c.81-.28 1.46-.6 1.93-.95.81-.63 1.46-1.35 1.94-2.15.17-.28.26-.53.26-.75 0-.24-.11-.36-.33-.36-.3 0-.73.23-1.3.69-1 .81-1.84 1.98-2.5 3.52z"/><path id="18" class="fil0" d="M174.29 64.71c1.16-2.44 2.27-4.57 3.32-6.39 1-1.75 1.69-2.86 2.05-3.32.4-.5.78-.75 1.12-.75.19 0 .36.07.51.22.15.16.21.32.21.5 0 .27-.19.72-.59 1.35-1.7 2.74-3.26 5.52-4.68 8.35-1.66 3.28-2.49 5.74-2.49 7.38 0 .66.13 1.19.39 1.57.04.09.25.27.63.57.07.05.11.17.11.35 0 .23-.1.45-.28.64-.18.19-.38.29-.6.29-.27 0-.57-.17-.9-.48-.47-.47-.75-1.01-.84-1.62-.04-.26-.08-.74-.13-1.44-1.23 2.21-2.39 3.32-3.51 3.32-.64 0-1.15-.37-1.54-1.09-.26-.48-.38-1.02-.38-1.63 0-1.83.67-3.67 2.01-5.51 1.33-1.83 2.75-2.74 4.28-2.74.42 0 .86.14 1.31.43zm-.6 1.45c-.32-.22-.59-.34-.83-.34-.99 0-1.92.61-2.81 1.81-1.16 1.58-1.74 3.1-1.74 4.56 0 .18.03.34.11.5.13.29.35.44.63.44.41 0 .91-.4 1.51-1.2.78-1.05 1.51-2.29 2.19-3.73.23-.49.46-.98.69-1.48l.15-.33.1-.23z"/><path id="19" class="fil0" d="M190.62 65.72c1-.84 1.9-1.26 2.7-1.26.49 0 .9.2 1.21.61.3.36.44.79.44 1.27 0 .92-.3 2.03-.9 3.33-.66 1.44-1.63 2.79-2.9 4.03-1.04 1.03-2.04 1.55-2.99 1.55-.35 0-.67-.07-.96-.19-.28-.13-.54-.33-.76-.58-.09.16-.15.27-.18.31-.2.44-.33.69-.41.79-.08.09-.2.14-.36.14-.21 0-.41-.13-.6-.37a.842.842 0 0 1-.19-.53c0-.33.67-1.99 2.02-4.98 1.88-4.17 4.06-8.32 6.54-12.45 1.01-1.68 1.62-2.67 1.85-2.96.24-.35.47-.53.69-.53.25 0 .48.13.69.39.12.16.19.35.19.57 0 .25-.12.56-.34.94-.04.08-.41.68-1.1 1.8-2.12 3.28-3.67 5.99-4.64 8.12zm-3.49 7.1c.17.23.35.41.54.53.18.11.37.17.57.17 1.02 0 2.1-.88 3.24-2.66.53-.8.94-1.59 1.25-2.38.27-.71.41-1.23.41-1.57 0-.24-.06-.41-.16-.52-.11-.12-.27-.17-.5-.17-.54 0-1.19.37-1.95 1.11-.76.73-1.52 1.78-2.26 3.16-.35.66-.66 1.28-.91 1.85-.15.32-.23.48-.23.48z"/><path id="20" class="fil0" d="M201.87 70.03c-1.04 1.23-1.88 2.14-2.49 2.74-1.23 1.17-2.26 1.76-3.08 1.76-.39 0-.71-.14-.95-.44-.17-.23-.26-.53-.26-.87 0-1.27.75-2.94 2.24-5.03 1.53-2.13 2.62-3.19 3.3-3.19.19 0 .35.08.49.24.13.13.19.28.19.46 0 .26-.06.48-.19.67-.14.19-.52.62-1.15 1.29-.66.69-1.28 1.43-1.83 2.24-.65.91-.96 1.58-.96 2 0 .24.12.36.35.36.47 0 1.36-.64 2.65-1.92.82-.8 1.45-1.48 1.91-2.03.09-.12.51-.68 1.23-1.67.66-.88 1.06-1.4 1.21-1.57.36-.41.68-.61.99-.61a.7.7 0 0 1 .51.24c.14.15.21.33.21.53 0 .34-.24.91-.71 1.7-.56.97-1.07 1.88-1.54 2.73-.74 1.31-1.31 2.48-1.71 3.51.75-.43 1.43-.97 2.04-1.6 1.04-1.06 1.68-1.84 1.91-2.35.22-.47.44-.71.68-.71.32 0 .48.17.48.5 0 .62-.52 1.54-1.57 2.77-1.25 1.48-2.8 2.74-4.63 3.78-.99 2.37-1.92 4.33-2.8 5.89-1.65 2.87-3.34 4.3-5.09 4.3-.72 0-1.29-.27-1.73-.82-.34-.42-.51-.96-.51-1.6 0-1.83 1.28-3.7 3.85-5.61.75-.56 1.86-1.27 3.34-2.11.6-.34 1.07-.61 1.41-.83.2-.54.53-1.25.95-2.14.48-.96.9-1.83 1.26-2.61zm-3.25 6.93c-1.24.63-2.5 1.53-3.8 2.71-1.31 1.2-1.96 2.33-1.96 3.37a.86.86 0 0 0 .88.88c.87 0 1.84-.92 2.9-2.76.18-.3.66-1.32 1.44-3.04.16-.35.34-.74.54-1.16z"/><path id="21" class="fil0" d="M227.78 62.57c1.1.39 1.94.89 2.5 1.49.96 1.01 1.44 2.18 1.44 3.51 0 1.61-.48 3.13-1.45 4.57-.92 1.32-2.08 2.37-3.5 3.14-1.43.77-2.9 1.16-4.41 1.16-1.17 0-2.44-.3-3.8-.9-.1.32-.16.52-.19.63-.15.55-.39.83-.72.83-.34 0-.63-.19-.88-.58-.17-.27-.26-.55-.26-.83 0-.41.25-1.26.77-2.58 1.06-2.69 1.98-4.8 2.77-6.33.49-.95 1.51-2.76 3.06-5.41.68-1.15 1.65-2.71 2.93-4.69.31-.47.59-.94.88-1.42-.59.19-1.32.49-2.2.92-.75.34-1.19.52-1.32.52-.17 0-.32-.09-.45-.27a.992.992 0 0 1-.2-.61c0-.36.13-.62.38-.79.44-.31 1.24-.71 2.38-1.18 2.4-.97 4.34-1.45 5.81-1.45 1.24 0 2.25.31 3.02.93.78.62 1.16 1.39 1.16 2.34 0 1.93-1.11 3.59-3.35 5-1.35.84-2.81 1.51-4.37 2zm-2.64-1.06c1.99-.37 3.86-1.08 5.62-2.13 2.03-1.24 3.05-2.46 3.05-3.68 0-.57-.27-1-.81-1.32-.35-.21-.84-.32-1.47-.32-.41 0-.85.04-1.32.13-.46.09-.96.22-1.48.4.19.15.3.34.3.56 0 .31-.2.72-.59 1.24-.13.17-.36.52-.7 1.03-.13.23-.52.82-1.18 1.78-.64.95-1.11 1.72-1.42 2.31zm-6.08 12.55c.4.24.69.39.88.46.51.2 1.17.3 2 .3 2.5 0 4.5-.99 6-2.96 1.28-1.67 1.91-3.31 1.91-4.92 0-1.1-.48-1.97-1.45-2.61-.58-.37-1.25-.56-2.02-.56-.3 0-.74.07-1.31.2-.1.02-.21.03-.31.03-.28 0-.52-.2-.7-.62-.95 1.43-2 3.42-3.17 5.98-.6 1.3-1.21 2.87-1.83 4.7z"/><path id="22" class="fil0" d="M237.4 64.42c.2 0 .36.08.49.23.09.13.14.26.14.39 0 .21-.17.56-.51 1.05-1.21 1.89-2.08 3.44-2.59 4.66-.55 1.25-1.04 2.54-1.46 3.86-.18.59-.48.89-.87.89a.67.67 0 0 1-.56-.29.733.733 0 0 1-.2-.49c0-.35.38-1.52 1.13-3.51.58-1.57 1.52-3.31 2.84-5.21.42-.62.73-1.03.94-1.24.21-.23.43-.34.65-.34zm3.33-6.51c.53 0 .79.27.79.81 0 .49-.26 1.04-.77 1.64-.49.57-.97.86-1.42.86a.67.67 0 0 1-.55-.25.795.795 0 0 1-.21-.56c0-.56.31-1.16.93-1.8.46-.47.87-.7 1.23-.7z"/><path id="23" class="fil0" d="M240.82 68.94c.15-.14.3-.28.44-.42 2.44-2.4 4.07-3.6 4.9-3.6.45 0 .68.26.68.76 0 .35-.2.77-.61 1.25-2.23 2.61-3.35 4.91-3.35 6.9 0 .65.18 1.26.53 1.84.16.27.25.48.25.64 0 .14-.08.27-.21.4-.16.16-.34.25-.55.25-.47 0-.88-.31-1.21-.91-.31-.58-.46-1.27-.46-2.1 0-1.58.58-3.33 1.76-5.25-1.58 1.02-3.06 2.83-4.42 5.41-.36.62-.74.94-1.13.94-.21 0-.37-.08-.5-.21a.9.9 0 0 1-.25-.64c0-.63.72-2.29 2.17-4.97.77-1.45 1.38-2.51 1.83-3.16.45-.64.83-.97 1.14-.97.16 0 .3.08.45.21.16.17.24.36.24.57 0 .26-.17.63-.51 1.11-.49.72-.88 1.36-1.19 1.95z"/><path id="24" class="fil0" d="M251.96 72.05c-.38.68-.77 1.25-1.14 1.72-.74.92-1.47 1.37-2.19 1.37-.64 0-1.13-.3-1.48-.9-.22-.38-.33-.84-.33-1.36 0-1.31.4-2.74 1.22-4.31.92-1.75 2.03-3.09 3.31-4.03.84-.6 1.66-.91 2.44-.91.5 0 .91.15 1.24.46.28.27.42.57.42.91 0 .26-.1.62-.3 1.08.18.24.26.46.26.65 0 .25-.16.65-.49 1.21-.33.58-.68 1.34-1.01 2.29-.37 1.01-.55 1.82-.55 2.43 0 .49.15.89.44 1.21.08.08.32.22.72.41.29.14.44.38.44.74 0 .22-.08.4-.24.54-.18.15-.39.23-.62.23-.64 0-1.18-.29-1.64-.86-.38-.45-.57-1.03-.57-1.72 0-.23.02-.62.07-1.16zm2.2-5.79c-.14-.26-.29-.45-.46-.57a.815.815 0 0 0-.52-.19c-.9 0-1.87.78-2.91 2.34-1.15 1.73-1.73 3.19-1.73 4.39 0 .29.06.51.17.67.11.15.28.23.5.23.57 0 1.22-.6 1.98-1.8.42-.66.94-1.63 1.56-2.9.41-.84.71-1.39.9-1.66.1-.14.26-.31.51-.51z"/><path id="25" class="fil0" d="M259.32 69.19c1.14-1.23 2.47-2.43 3.97-3.61.54-.42 1.11-.81 1.72-1.18.3-.18.49-.27.58-.27.17 0 .35.13.53.39.1.13.15.27.15.38 0 .21-.22.5-.66.86-1.19.95-1.78 1.66-1.78 2.14 0 .27.14.4.45.4.5 0 1.36-.41 2.58-1.25.21-.13.38-.21.52-.21.1 0 .19.05.28.15.1.1.16.21.16.33 0 .35-.49.89-1.47 1.62-1.03.78-2 1.16-2.93 1.16-.37 0-.71-.1-1.03-.29-.27-.17-.4-.46-.4-.88 0-.29.13-.63.37-1-.93.65-2.02 1.78-3.28 3.37-.72.99-1.44 2.2-2.16 3.64-.27.54-.61.81-1 .81-.44 0-.66-.2-.66-.61 0-.4.34-1.47 1.02-3.2 1.02-2.57 2.07-4.57 3.17-5.98.68-.89 1.25-1.32 1.71-1.32.15 0 .29.04.42.13.15.12.23.27.23.45 0 .17-.12.42-.35.74-.05.05-.36.45-.93 1.17-.53.69-.93 1.38-1.21 2.06z"/><path id="26" class="fil0" d="M273.39 70.03c-1.03 1.23-1.87 2.14-2.48 2.74-1.23 1.17-2.26 1.76-3.08 1.76-.4 0-.71-.14-.95-.44-.17-.23-.26-.53-.26-.87 0-1.27.75-2.94 2.24-5.03 1.52-2.13 2.62-3.19 3.3-3.19.19 0 .35.08.49.24.13.13.19.28.19.46 0 .26-.06.48-.2.67-.13.19-.51.62-1.14 1.29-.67.69-1.28 1.43-1.83 2.24-.65.91-.96 1.58-.96 2 0 .24.12.36.35.36.47 0 1.35-.64 2.65-1.92.82-.8 1.45-1.48 1.91-2.03.09-.12.51-.68 1.23-1.67.65-.88 1.06-1.4 1.21-1.57.36-.41.68-.61.99-.61a.7.7 0 0 1 .51.24c.14.15.21.33.21.53 0 .34-.24.91-.71 1.7-.56.97-1.08 1.88-1.54 2.73-.74 1.31-1.31 2.48-1.71 3.51.75-.43 1.42-.97 2.04-1.6 1.04-1.06 1.68-1.84 1.91-2.35.22-.47.44-.71.68-.71.32 0 .48.17.48.5 0 .62-.52 1.54-1.57 2.77-1.25 1.48-2.8 2.74-4.63 3.78-.99 2.37-1.92 4.33-2.8 5.89-1.65 2.87-3.34 4.3-5.09 4.3-.72 0-1.29-.27-1.73-.82-.34-.42-.51-.96-.51-1.6 0-1.83 1.28-3.7 3.85-5.61.75-.56 1.86-1.27 3.34-2.11.6-.34 1.07-.61 1.41-.83.2-.54.53-1.25.95-2.14.48-.96.89-1.83 1.25-2.61zm-3.24 6.93c-1.24.63-2.51 1.53-3.8 2.71-1.31 1.2-1.96 2.33-1.96 3.37 0 .23.06.41.19.56.17.21.4.32.68.32.88 0 1.85-.92 2.91-2.76.18-.3.66-1.32 1.44-3.04.16-.35.34-.74.54-1.16z"/><path id="27" class="fil0" d="M280.91 73.67c.26 0 .48.12.66.35.11.15.17.34.17.58 0 .55-.15 1.13-.46 1.73-.31.65-.73.97-1.25.97-.54 0-.81-.31-.81-.91 0-.61.19-1.23.57-1.87.34-.57.71-.85 1.12-.85z"/><path id="28" class="fil0" d="M293.04 64.06c.92 0 1.38.49 1.38 1.46 0 .86-.33 1.72-1 2.59-.52.65-.97.98-1.35.98-.33 0-.49-.18-.49-.56 0-.2.05-.36.14-.48.03-.04.17-.18.42-.4.21-.2.43-.49.65-.9.15-.27.23-.48.23-.64 0-.19-.11-.29-.32-.29-.25 0-.62.2-1.13.59-.79.61-1.59 1.59-2.39 2.92-.82 1.37-1.23 2.47-1.23 3.26 0 .26.07.49.22.69.23.31.53.46.9.46.74 0 1.61-.46 2.62-1.38.85-.79 1.57-1.58 2.16-2.36.3-.44.57-.66.79-.66.13 0 .24.06.35.18.09.12.14.23.14.35 0 .43-.56 1.28-1.67 2.53-1.77 1.97-3.37 2.96-4.81 2.96-.87 0-1.53-.31-1.98-.93-.32-.46-.49-1-.49-1.62 0-1.22.51-2.63 1.51-4.23.98-1.54 2.1-2.77 3.37-3.71.75-.54 1.41-.81 1.98-.81z"/><path id="29" class="fil0" d="M303.26 63.63c.95 0 1.43.59 1.43 1.76 0 1.55-.72 3.52-2.15 5.91-1.57 2.58-3.08 3.88-4.53 3.88-.68 0-1.18-.32-1.49-.95-.16-.32-.25-.7-.25-1.14 0-1.5.52-3.12 1.54-4.88.96-1.62 2.09-2.89 3.38-3.79.76-.53 1.45-.79 2.07-.79zm-1.82 6.64c-.29-.24-.44-.42-.44-.55 0-.09.19-.35.56-.77 1.06-1.19 1.58-2.14 1.58-2.87a.63.63 0 0 0-.08-.28.49.49 0 0 0-.44-.26c-.37 0-.93.36-1.65 1.09-.94.93-1.65 1.9-2.14 2.89-.58 1.14-.87 2.08-.87 2.83 0 .21.06.38.16.53.16.21.35.32.58.32.57 0 1.17-.42 1.81-1.27.28-.35.51-.71.69-1.09.17-.37.25-.57.24-.57z"/><path id="30" class="fil0" d="M307.86 69.1c.98-1.03 1.84-1.84 2.6-2.42 1.14-.89 1.9-1.32 2.28-1.32.2 0 .36.07.5.21.13.12.19.27.19.42 0 .22-.2.58-.61 1.08-.63.79-1.07 1.47-1.32 2.03 2.75-2.74 4.63-4.1 5.64-4.1.21 0 .39.06.54.19.17.14.25.32.25.53 0 .33-.25.75-.76 1.26-2.23 2.29-3.34 4.16-3.34 5.63 0 .59.1 1.02.31 1.28l.45.58c.09.1.14.24.14.4 0 .19-.08.37-.23.53-.17.19-.37.28-.59.28-.39 0-.74-.24-1.07-.74-.4-.59-.59-1.29-.59-2.08 0-1.08.3-2.16.91-3.25.21-.39.56-.91 1.05-1.56-.99.76-2 1.8-3.03 3.12-.7.89-1.33 1.89-1.88 2.99-.27.54-.59.8-.95.8-.4 0-.6-.22-.6-.67 0-.48.33-1.47.98-2.98.38-.86.84-1.76 1.39-2.72-2 1.56-3.5 3.66-4.51 6.32-.25.59-.58.88-.99.88-.19 0-.34-.07-.46-.21a.765.765 0 0 1-.19-.51c0-.7.39-1.94 1.16-3.75.8-1.91 1.71-3.63 2.73-5.15.7-1.07 1.24-1.6 1.63-1.6.35 0 .53.18.53.56 0 .16-.22.57-.65 1.23-.76 1.23-1.27 2.14-1.51 2.74z"/><path d="M46.12 0c25.46 0 46.11 20.65 46.11 46.12 0 25.46-20.65 46.11-46.11 46.11C20.65 92.23 0 71.58 0 46.12 0 20.65 20.65 0 46.12 0zm19.16 47.92l8.43 14.6-6.61-1.77a25.495 25.495 0 0 1-14.36 10.09c-11.09 2.97-22.42-1.82-28.25-11.03l-.03-.05 5.24-3.03-16.42-4.4-4.4 16.42 5.48-3.17c8.4 13.7 25.08 20.88 41.39 16.51 13.46-3.61 23.2-14.14 26.44-26.73.73-2.82-.96-5.72-3.77-6.47l-6.73-1.8-9.93-2.66c-.84-7.9-7.52-14.05-15.64-14.05-4 0-7.65 1.49-10.42 3.94l5.79 1.56-14.6 8.43-8.43-14.61 6.66 1.79c3.33-4.79 8.3-8.47 14.37-10.1 11.09-2.97 22.42 1.82 28.25 11.04l.01.01-5.28 3.05 16.42 4.4 4.39-16.41-5.43 3.13c-8.4-13.68-25.08-20.83-41.37-16.47-13.56 3.63-23.35 14.3-26.52 27.02-.7 2.81.99 5.68 3.79 6.43l1.26.33 5.52 1.48 9.97 2.67c.96 7.77 7.59 13.78 15.62 13.78 3.98 0 7.63-1.49 10.4-3.93l-5.84-1.57 14.6-8.43z" fill="url(#id0)"/></g></g></svg>