<svg xmlns="http://www.w3.org/2000/svg" width="278" height="278" viewBox="0 0 73.07 73.07" shape-rendering="geometricPrecision" text-rendering="geometricPrecision" image-rendering="optimizeQuality" fill-rule="evenodd" clip-rule="evenodd"><defs><radialGradient id="a" gradientUnits="userSpaceOnUse" gradientTransform="rotate(-90 38 45) scale(1.18794)" cx="38" cy="38" r="17.28" fx="38" fy="38"><stop offset="0" stop-color="#ff6"/><stop offset="1" stop-color="#f60"/></radialGradient></defs><path d="M36.54 0c20.17 0 36.53 16.36 36.53 36.54 0 20.17-16.36 36.53-36.53 36.53C16.36 73.07 0 56.71 0 36.54 0 16.36 16.36 0 36.54 0zm15.18 37.97l6.68 11.57-5.24-1.41a20.112 20.112 0 0 1-11.37 7.99C33 58.48 24.02 54.68 19.4 47.38l-.02-.03 4.15-2.4-13.01-3.48-3.48 13 4.34-2.51c6.65 10.86 19.87 16.54 32.79 13.08 10.66-2.86 18.39-11.2 20.95-21.18.58-2.24-.76-4.53-2.99-5.12l-5.33-1.43-7.86-2.11c-.67-6.26-5.97-11.13-12.4-11.13-3.17 0-6.06 1.18-8.26 3.12l4.59 1.24-11.57 6.68-6.68-11.58 5.28 1.42c2.64-3.79 6.58-6.71 11.39-8 8.78-2.35 17.76 1.44 22.38 8.74l.01.02-4.18 2.41 13 3.49 3.49-13.01-4.31 2.49C55.03 10.25 41.81 4.58 28.9 8.04c-10.74 2.87-18.5 11.32-21.01 21.4-.55 2.23.79 4.5 3.01 5.09l.99.27 4.37 1.17 7.91 2.12c.76 6.15 6.01 10.92 12.37 10.92 3.16 0 6.04-1.18 8.24-3.12l-4.63-1.24 11.57-6.68z" fill="url(#a)"/></svg>