<svg xmlns="http://www.w3.org/2000/svg" width="736" height="234" viewBox="0 0 217.29 69.15" shape-rendering="geometricPrecision" text-rendering="geometricPrecision" image-rendering="optimizeQuality" fill-rule="evenodd" clip-rule="evenodd"><defs><style>.fil0,.fil1{fill:#025287;fill-rule:nonzero}.fil1{fill:#f60}</style></defs><g id="Layer_x0020_1"><g id="_2921626023120"><path class="fil0" d="M22.19 18.8c0 1.16-.22 2.17-.65 3.05a6.18 6.18 0 0 1-1.77 2.17c-.88.69-1.84 1.18-2.89 1.47-1.05.3-2.38.44-3.99.44H3.56V2.66h8.23c1.72 0 3.01.06 3.89.2.89.13 1.72.4 2.49.81.83.45 1.46 1.05 1.87 1.8.41.75.62 1.62.62 2.6 0 1.13-.29 2.14-.86 3.03-.56.88-1.35 1.54-2.35 1.95v.13c1.43.3 2.58.92 3.45 1.85.86.93 1.29 2.19 1.29 3.77zM14.7 9.23c0-.37-.09-.76-.29-1.16a1.7 1.7 0 0 0-.9-.85 3.46 3.46 0 0 0-1.36-.28c-.53-.02-1.32-.02-2.36-.02h-.4v4.93h.73c1 0 1.7-.01 2.11-.04.4-.02.81-.12 1.24-.33.46-.22.79-.51.97-.9.17-.39.26-.84.26-1.35zm1.47 9.48c0-.72-.14-1.28-.43-1.69-.3-.41-.73-.71-1.32-.92-.35-.14-.84-.22-1.46-.23-.62-.02-1.45-.02-2.49-.02H9.39v5.82h.31c1.52 0 2.58-.01 3.16-.03.58-.02 1.18-.16 1.78-.42.53-.23.92-.57 1.17-1.01.24-.44.36-.94.36-1.5z"/><path id="1" class="fil0" d="M30.67 25.93H25.2V8.39h5.47v17.54zm.16-20.04h-5.79V1.64h5.79v4.25z"/><path id="2" class="fil0" d="M51.31 25.93h-5.47v-8.7c0-.71-.03-1.41-.09-2.11-.05-.71-.16-1.23-.32-1.56-.19-.39-.46-.68-.82-.85-.35-.17-.83-.26-1.43-.26-.45 0-.9.09-1.37.25-.46.17-.95.44-1.48.8v12.43h-5.47V8.39h5.47v1.94c.9-.76 1.78-1.35 2.62-1.78.85-.43 1.8-.64 2.83-.64 1.79 0 3.16.56 4.11 1.7.95 1.12 1.42 2.76 1.42 4.9v11.42z"/><path id="3" class="fil0" d="M65.02 21.35v-3.68c-.92.1-1.67.18-2.23.25-.57.06-1.13.19-1.68.4-.47.16-.84.42-1.11.75-.26.35-.39.8-.39 1.36 0 .83.22 1.4.65 1.71.45.31 1.09.46 1.95.46.48 0 .96-.11 1.46-.33.49-.22.94-.53 1.35-.92zm0 2.72c-.38.31-.71.59-1.01.85-.29.24-.69.49-1.19.74-.49.24-.96.43-1.43.56-.45.13-1.1.19-1.93.19-1.55 0-2.83-.52-3.85-1.57-1.03-1.04-1.54-2.36-1.54-3.95 0-1.3.26-2.36.78-3.16.52-.81 1.26-1.45 2.24-1.92.99-.48 2.17-.81 3.54-1 1.37-.18 2.84-.33 4.42-.44v-.09c0-.97-.36-1.64-1.07-2.01-.71-.37-1.77-.55-3.19-.55-.65 0-1.4.12-2.26.35-.86.23-1.7.53-2.52.9h-.47V8.72c.55-.15 1.42-.34 2.63-.55 1.2-.22 2.42-.32 3.65-.32 3.02 0 5.22.5 6.6 1.5 1.38 1.01 2.07 2.55 2.07 4.62v11.96h-5.47v-1.86z"/><path id="4" class="fil0" d="M86.32 13.57h-.45c-.21-.07-.51-.13-.91-.17-.4-.03-.84-.05-1.32-.05-.58 0-1.18.09-1.81.25-.63.17-1.25.36-1.84.59v11.74h-5.48V8.39h5.48v2.51c.25-.23.59-.52 1.04-.86.44-.35.85-.63 1.21-.84.4-.24.87-.44 1.39-.62.53-.17 1.03-.25 1.5-.25a8.74 8.74 0 0 1 1.19.06v5.18z"/><path id="5" class="fil0" d="M104.78 8.39l-8.85 23.97h-5.88l2.66-6.85-6.43-17.12h5.75l3.68 11 3.44-11z"/><path id="6" class="fil0" d="M137.16 2.66l-5.89 23.27h-6.41l-3.72-14.39-3.61 14.39h-6.42l-5.89-23.27h6.07l3.2 15.57 3.89-15.57h5.8l3.7 15.61 3.37-15.61z"/><path id="7" class="fil0" d="M148.72 26.41c-3.32 0-5.86-.79-7.63-2.37-1.77-1.59-2.66-3.85-2.66-6.77 0-2.87.83-5.15 2.48-6.86s3.96-2.56 6.92-2.56c2.69 0 4.72.72 6.07 2.17 1.37 1.45 2.04 3.52 2.04 6.23v1.97h-12.03c.05.81.22 1.49.52 2.04.29.55.67.98 1.16 1.31.47.32 1.02.55 1.64.69.63.14 1.31.21 2.06.21.64 0 1.26-.07 1.88-.21.62-.14 1.18-.33 1.69-.57.45-.2.87-.41 1.25-.65.38-.23.69-.43.93-.62h.58v4.53c-.45.18-.86.34-1.22.49-.38.16-.88.31-1.53.47-.6.15-1.21.28-1.84.37-.63.09-1.4.13-2.31.13zm1.85-11.49c-.04-1.17-.31-2.06-.82-2.67-.51-.61-1.29-.92-2.34-.92-1.07 0-1.91.32-2.51.97-.61.64-.94 1.51-1.01 2.62h6.68z"/><path id="8" class="fil0" d="M170.34 17.04c0-1.75-.27-3-.79-3.75-.54-.75-1.36-1.12-2.46-1.12-.49 0-.98.08-1.47.23-.48.16-.96.39-1.42.71v8.8c.36.14.73.24 1.1.29.37.05.74.08 1.1.08 1.33 0 2.31-.44 2.96-1.31.65-.88.98-2.18.98-3.93zm5.6-.12c0 2.79-.71 5.05-2.13 6.77-1.42 1.73-3.17 2.59-5.27 2.59-.87 0-1.63-.1-2.28-.3-.65-.2-1.33-.51-2.06-.93l-.24.88h-5.24V1.6h5.48v8.62c.8-.68 1.62-1.24 2.45-1.67.84-.43 1.8-.64 2.9-.64 2.04 0 3.62.79 4.73 2.39 1.11 1.59 1.66 3.8 1.66 6.62z"/><path id="9" class="fil1" d="M184.64 25.93h-5.54v-6.15h5.54z"/><path id="10" class="fil1" d="M194.42 25.93h-5.47V8.39h5.47v17.54zm.16-20.04h-5.79V1.64h5.79v4.25z"/><path id="11" class="fil1" d="M214.58 25.93h-5.47V24.1c-.36.29-.77.61-1.22.94-.45.33-.85.58-1.2.75-.44.21-.87.36-1.3.46-.43.11-.94.16-1.54.16-2 0-3.59-.83-4.77-2.48-1.17-1.66-1.75-3.87-1.75-6.64 0-1.53.2-2.86.6-3.98.39-1.12.94-2.1 1.64-2.94a7.08 7.08 0 0 1 2.32-1.8c.91-.44 1.87-.66 2.89-.66.92 0 1.68.1 2.26.29.59.19 1.28.49 2.07.9V1.6h5.47v24.33zm-5.47-4.83v-8.66c-.28-.13-.63-.24-1.07-.33-.44-.09-.82-.14-1.13-.14-1.32 0-2.32.46-2.98 1.39-.67.92-1 2.2-1 3.86 0 1.74.27 3 .79 3.77.53.77 1.39 1.16 2.58 1.16.48 0 .96-.09 1.46-.28.49-.19.94-.44 1.35-.77z"/><path id="12" class="fil0" d="M6.43 51.09l-.21.46c-1.09 2.25-1.81 3.85-2.18 4.81-.56 1.5-.88 2.37-.95 2.62-.22.7-.51 1.04-.86 1.04-.25 0-.46-.11-.64-.34-.15-.2-.23-.42-.23-.64 0-.9 1.14-3.72 3.43-8.49-.42-.31-.62-.62-.62-.93 0-.24.1-.45.31-.62.17-.15.36-.23.57-.23.15 0 .33.04.57.11 1.7-3.23 2.7-5.3 2.99-6.18-.26.14-.59.35-1 .62-.23.14-.43.22-.61.22-.2 0-.36-.1-.49-.3a.787.787 0 0 1-.12-.42c0-.49.42-1.02 1.27-1.58.68-.44 1.31-.82 1.89-1.12.1-.25.15-.42.17-.51.11-.4.22-.66.33-.8.12-.13.29-.2.53-.2.49 0 .74.27.74.82.72-.21 1.36-.37 1.91-.47.55-.11 1.02-.16 1.41-.16 1.01 0 1.87.39 2.56 1.16.66.73.99 1.55.99 2.46 0 1.57-.66 3.15-1.97 4.72-1.12 1.34-2.52 2.38-4.18 3.13-1.44.64-2.88.96-4.32.96-.34 0-.77-.05-1.29-.14zm4.36-9.55c-.34 1.04-.9 2.36-1.69 3.97-.96 1.96-1.58 3.24-1.86 3.85.57.11.98.17 1.2.17 1.19 0 2.58-.48 4.17-1.44 1.53-.94 2.73-2.1 3.6-3.49.53-.85.8-1.6.8-2.26 0-.59-.21-1.04-.61-1.33-.4-.3-1-.45-1.82-.45-.61 0-1.24.08-1.87.24-.63.17-1.27.41-1.92.74z"/><path id="13" class="fil0" d="M20.34 48.47c.85 0 1.28.52 1.28 1.56 0 1.38-.64 3.14-1.92 5.26-1.39 2.3-2.74 3.45-4.03 3.45-.61 0-1.05-.28-1.33-.84-.14-.28-.21-.62-.21-1.01 0-1.34.45-2.78 1.37-4.35.84-1.44 1.85-2.57 3-3.37.68-.47 1.29-.7 1.84-.7zm-1.62 5.9c-.26-.21-.39-.37-.39-.48 0-.09.17-.32.5-.69.94-1.06 1.41-1.91 1.41-2.55 0-.09-.03-.17-.08-.25a.406.406 0 0 0-.39-.24c-.33 0-.82.33-1.47.97-.83.84-1.46 1.7-1.9 2.58-.51 1.01-.77 1.85-.77 2.52 0 .18.05.34.14.47.14.19.31.28.52.28.5 0 1.03-.37 1.61-1.12.25-.32.45-.64.61-.98.15-.33.22-.5.21-.51z"/><path id="14" class="fil0" d="M27.21 54.19c-.89 1.21-1.56 2.04-1.98 2.5-.54.57-1 1.01-1.38 1.31-.44.33-.84.49-1.22.49-.36 0-.65-.19-.84-.55-.16-.28-.24-.6-.24-.94 0-1.13.68-2.69 2.03-4.68 1.23-1.8 2.14-2.7 2.74-2.7.14 0 .28.07.42.2.12.13.19.27.19.44 0 .23-.2.55-.61.95-.87.86-1.62 1.82-2.26 2.9-.54.91-.81 1.51-.81 1.79 0 .21.09.31.28.31.62 0 1.98-1.35 4.07-4.06.68-.88 1.09-1.38 1.23-1.52.28-.25.55-.37.84-.37.18 0 .34.05.48.15.11.11.17.22.17.34 0 .12-.25.64-.75 1.57-1.14 1.99-1.71 3.34-1.71 4.03 0 .27.11.41.33.41.37 0 .89-.44 1.54-1.3.63-.81 1.21-1.84 1.74-3.09.23-.54.44-1.25.61-2.13.21-1.01.63-1.52 1.26-1.52.36 0 .53.2.53.6 0 1.36-.76 3.24-2.28 5.62-1.58 2.49-2.92 3.74-4 3.74-.81 0-1.21-.5-1.21-1.49 0-.81.28-1.81.83-3z"/><path id="15" class="fil0" d="M35.09 55.54v.28c0 .23.06.43.17.59.26.38.69.57 1.28.57 1.31 0 2.81-1 4.52-3 .3-.34.56-.51.77-.51.11 0 .22.05.31.17.06.08.09.16.09.23 0 .41-.5 1.09-1.5 2.07-.78.75-1.61 1.38-2.5 1.86-.88.48-1.7.72-2.47.72-.78 0-1.39-.27-1.85-.81-.3-.38-.45-.89-.45-1.53 0-1.76.83-3.49 2.48-5.17 1.34-1.37 2.52-2.06 3.51-2.06.28 0 .52.08.74.25.27.22.41.5.41.86 0 .55-.26 1.22-.77 2.03-1.05 1.66-2.63 2.82-4.74 3.45zm.35-1.22c.73-.25 1.3-.53 1.72-.84.73-.56 1.3-1.2 1.73-1.91.15-.25.23-.48.23-.68 0-.2-.1-.31-.3-.31-.26 0-.65.2-1.15.61-.89.72-1.64 1.76-2.23 3.13z"/><path id="16" class="fil0" d="M45.49 53.41a30.87 30.87 0 0 1 3.53-3.2c.48-.38 1-.73 1.54-1.05.27-.16.44-.24.51-.24.16 0 .31.11.47.34.09.12.14.24.14.34 0 .19-.2.44-.59.76-1.06.84-1.59 1.48-1.59 1.91 0 .24.14.35.41.35.44 0 1.21-.37 2.29-1.11.19-.12.34-.18.47-.18.08 0 .16.04.25.12.09.1.14.2.14.3 0 .31-.44.79-1.31 1.44-.91.69-1.78 1.04-2.6 1.04-.33 0-.64-.09-.92-.27-.24-.14-.36-.4-.36-.78 0-.26.11-.56.33-.89-.82.58-1.79 1.59-2.92 3.01-.64.87-1.28 1.95-1.92 3.23-.24.48-.54.72-.89.72-.39 0-.58-.18-.58-.54 0-.36.3-1.31.9-2.85.91-2.29 1.84-4.06 2.83-5.32.6-.79 1.11-1.18 1.51-1.18.14 0 .26.05.38.13.13.1.2.23.2.39s-.1.37-.31.66l-.83 1.04a8.41 8.41 0 0 0-1.08 1.83z"/><path id="17" class="fil0" d="M53.65 55.54v.28c0 .23.06.43.18.59.26.38.68.57 1.28.57 1.3 0 2.81-1 4.51-3 .31-.34.56-.51.77-.51.11 0 .22.05.31.17.07.08.1.16.1.23 0 .41-.5 1.09-1.5 2.07-.79.75-1.62 1.38-2.5 1.86-.89.48-1.71.72-2.47.72-.79 0-1.4-.27-1.85-.81-.31-.38-.46-.89-.46-1.53 0-1.76.83-3.49 2.49-5.17 1.34-1.37 2.51-2.06 3.51-2.06.27 0 .52.08.73.25.28.22.41.5.41.86 0 .55-.26 1.22-.76 2.03-1.05 1.66-2.63 2.82-4.75 3.45zm.36-1.22c.72-.25 1.3-.53 1.71-.84.73-.56 1.31-1.2 1.73-1.91.16-.25.24-.48.24-.68 0-.2-.1-.31-.3-.31-.27 0-.65.2-1.15.61-.89.72-1.64 1.76-2.23 3.13z"/><path id="18" class="fil0" d="M67.53 49.43c1.04-2.17 2.03-4.07 2.95-5.68.9-1.57 1.51-2.55 1.83-2.96.36-.45.69-.67 1-.67.17 0 .32.07.46.2.12.14.18.28.18.44 0 .24-.17.64-.53 1.2a99.26 99.26 0 0 0-4.16 7.43c-1.47 2.92-2.22 5.11-2.22 6.57 0 .59.12 1.06.35 1.4.04.07.23.24.56.5.07.05.1.16.1.31 0 .21-.09.4-.25.57-.16.17-.34.26-.54.26-.24 0-.5-.15-.8-.43-.41-.42-.66-.9-.74-1.43-.04-.23-.07-.67-.12-1.29-1.09 1.97-2.12 2.96-3.12 2.96-.57 0-1.02-.33-1.37-.98-.23-.42-.34-.9-.34-1.45 0-1.62.6-3.26 1.79-4.9 1.18-1.63 2.45-2.44 3.81-2.44.38 0 .76.13 1.16.39zM67 50.72c-.28-.2-.53-.3-.73-.3-.88 0-1.72.54-2.51 1.61-1.03 1.4-1.55 2.75-1.55 4.05 0 .17.03.31.1.45.12.26.31.39.56.39.37 0 .81-.35 1.34-1.06.7-.94 1.35-2.05 1.95-3.33.21-.44.41-.87.62-1.31 0 0 .04-.1.13-.3l.09-.2z"/><path id="19" class="fil0" d="M82.06 50.33c.89-.75 1.69-1.13 2.4-1.13.44 0 .8.19 1.08.55.27.32.39.7.39 1.13 0 .81-.26 1.8-.8 2.96-.59 1.28-1.45 2.48-2.58 3.59-.93.92-1.81 1.38-2.65 1.38a2.006 2.006 0 0 1-1.54-.69c-.08.14-.13.24-.16.28-.17.38-.29.61-.36.7-.07.08-.18.12-.32.12-.19 0-.37-.11-.54-.33a.754.754 0 0 1-.17-.47c0-.29.6-1.76 1.8-4.43 1.67-3.71 3.62-7.4 5.82-11.07.9-1.5 1.45-2.38 1.64-2.64.22-.31.42-.47.62-.47.23 0 .43.12.61.35.11.14.17.31.17.51 0 .22-.1.49-.3.83-.04.07-.37.61-.98 1.61-1.89 2.91-3.26 5.33-4.13 7.22zm-3.1 6.31c.15.21.31.37.48.47.16.11.33.16.5.16.92 0 1.88-.79 2.89-2.37.47-.71.84-1.42 1.11-2.12.24-.63.36-1.09.36-1.39 0-.22-.05-.37-.14-.47-.09-.1-.24-.15-.44-.15-.48 0-1.06.33-1.74.99-.68.65-1.35 1.58-2 2.81-.32.59-.59 1.14-.82 1.65-.13.28-.2.42-.2.42z"/><path id="20" class="fil0" d="M92.07 54.16c-.92 1.1-1.67 1.91-2.22 2.44-1.09 1.04-2 1.57-2.73 1.57-.35 0-.64-.13-.84-.39-.16-.21-.24-.47-.24-.78 0-1.13.67-2.62 2-4.48 1.35-1.89 2.33-2.84 2.93-2.84.16 0 .31.08.44.22.11.11.17.25.17.41 0 .23-.06.42-.18.6-.12.17-.46.55-1.02 1.14-.59.62-1.13 1.28-1.63 2-.57.81-.85 1.4-.85 1.77 0 .22.1.33.31.33.42 0 1.21-.57 2.36-1.71.72-.72 1.29-1.32 1.7-1.81.08-.1.45-.6 1.09-1.48.59-.79.95-1.25 1.08-1.4.32-.36.6-.55.88-.55.16 0 .32.08.45.22s.19.3.19.47c0 .31-.21.81-.63 1.52-.5.86-.96 1.67-1.37 2.42-.66 1.17-1.17 2.21-1.52 3.12.66-.38 1.27-.85 1.81-1.42.93-.94 1.49-1.63 1.7-2.09.2-.42.4-.63.6-.63.29 0 .44.15.44.44 0 .55-.47 1.37-1.4 2.47-1.12 1.31-2.49 2.44-4.12 3.36-.88 2.11-1.71 3.85-2.5 5.24-1.46 2.56-2.97 3.83-4.52 3.83-.64 0-1.15-.24-1.54-.73-.31-.38-.45-.85-.45-1.43 0-1.63 1.14-3.28 3.42-4.99.67-.5 1.66-1.12 2.97-1.87.54-.31.95-.55 1.26-.74.18-.48.46-1.12.84-1.91.43-.85.8-1.63 1.12-2.32zm-2.89 6.17c-1.1.56-2.23 1.36-3.38 2.41-1.16 1.07-1.74 2.07-1.74 3 0 .2.05.36.17.5.15.18.35.28.6.28.78 0 1.65-.82 2.59-2.45.16-.28.58-1.18 1.28-2.71.15-.31.31-.66.48-1.03z"/><path id="21" class="fil0" d="M115.12 47.52c.99.36 1.73.8 2.23 1.33.86.9 1.28 1.94 1.28 3.12 0 1.43-.43 2.79-1.29 4.07a9.059 9.059 0 0 1-3.11 2.79c-1.28.69-2.58 1.03-3.93 1.03-1.04 0-2.16-.26-3.38-.79-.09.27-.14.46-.17.56-.13.49-.35.73-.64.73-.3 0-.56-.17-.78-.51-.15-.24-.24-.49-.24-.74 0-.36.23-1.13.69-2.29.94-2.4 1.76-4.28 2.47-5.64.43-.85 1.34-2.45 2.72-4.81.6-1.02 1.47-2.42 2.61-4.18.27-.41.52-.83.78-1.26-.52.17-1.17.44-1.96.82-.66.31-1.05.46-1.17.46-.16 0-.29-.07-.41-.23a.944.944 0 0 1-.17-.55c0-.32.12-.55.33-.7.4-.28 1.11-.63 2.13-1.05 2.13-.86 3.85-1.29 5.17-1.29 1.1 0 2 .27 2.68.82.69.56 1.03 1.24 1.03 2.08 0 1.72-.99 3.2-2.98 4.45-1.2.75-2.49 1.35-3.89 1.78zm-2.34-.94c1.77-.33 3.43-.96 4.99-1.89 1.81-1.1 2.72-2.19 2.72-3.28 0-.5-.24-.89-.72-1.17-.31-.19-.75-.29-1.31-.29-.36 0-.75.04-1.17.12-.42.08-.85.2-1.32.35.17.14.26.31.26.5 0 .28-.17.64-.51 1.1-.12.16-.33.47-.63.93-.12.19-.46.72-1.05 1.58-.57.84-.99 1.53-1.26 2.05zm-5.41 11.17c.35.21.61.35.78.4.45.18 1.04.27 1.78.27 2.22 0 4-.87 5.34-2.63 1.13-1.49 1.7-2.94 1.7-4.38 0-.97-.43-1.75-1.3-2.32-.51-.33-1.11-.49-1.79-.49-.27 0-.66.05-1.16.17-.1.02-.19.03-.28.03-.26 0-.46-.18-.63-.55-.84 1.27-1.78 3.04-2.82 5.31-.53 1.16-1.07 2.56-1.62 4.19z"/><path id="22" class="fil0" d="M123.69 49.17c.17 0 .32.07.43.2.08.12.13.23.13.35 0 .19-.15.5-.46.94-1.08 1.67-1.85 3.06-2.3 4.14a35.34 35.34 0 0 0-1.3 3.44c-.16.52-.43.78-.78.78a.59.59 0 0 1-.5-.25.67.67 0 0 1-.17-.43c0-.32.33-1.36 1-3.13.52-1.4 1.36-2.94 2.53-4.63.37-.55.65-.92.84-1.11.19-.2.38-.3.58-.3zm2.96-5.79c.47 0 .7.24.7.72 0 .44-.23.92-.69 1.45-.44.52-.86.77-1.26.77-.2 0-.36-.07-.49-.22a.714.714 0 0 1-.18-.5c0-.5.27-1.03.82-1.6.41-.41.78-.62 1.1-.62z"/><path id="23" class="fil0" d="M126.73 53.19c.13-.12.26-.25.39-.37 2.17-2.13 3.62-3.2 4.35-3.2.41 0 .61.22.61.67 0 .32-.18.68-.54 1.11-1.99 2.33-2.98 4.37-2.98 6.14 0 .58.16 1.12.47 1.64.14.24.22.43.22.57 0 .12-.06.24-.19.36-.14.14-.3.22-.48.22-.42 0-.78-.28-1.07-.81-.28-.52-.42-1.14-.42-1.87 0-1.4.52-2.96 1.57-4.67-1.41.91-2.72 2.51-3.94 4.81-.31.56-.65.83-1 .83-.18 0-.33-.06-.44-.18a.769.769 0 0 1-.22-.57c0-.56.64-2.04 1.92-4.42.69-1.29 1.23-2.23 1.63-2.81.4-.57.74-.86 1.02-.86.14 0 .26.06.39.19.15.15.22.31.22.5 0 .23-.15.56-.45.98-.44.64-.79 1.22-1.06 1.74z"/><path id="24" class="fil0" d="M136.64 55.96c-.34.61-.68 1.11-1.02 1.53-.65.81-1.3 1.22-1.95 1.22-.56 0-1-.27-1.31-.8-.2-.34-.3-.75-.3-1.22 0-1.15.36-2.43 1.09-3.83.82-1.55 1.8-2.74 2.95-3.58.75-.54 1.47-.81 2.17-.81.44 0 .81.13 1.1.4.25.24.37.52.37.82 0 .23-.09.55-.26.95.16.22.23.41.23.59 0 .21-.14.57-.44 1.07-.3.52-.6 1.19-.9 2.04-.32.9-.48 1.62-.48 2.16 0 .44.12.8.39 1.08.07.07.28.19.64.36.26.12.39.34.39.66 0 .19-.07.35-.22.48-.16.14-.34.21-.55.21-.56 0-1.05-.26-1.46-.77-.34-.4-.51-.91-.51-1.53 0-.21.03-.55.07-1.03zm1.96-5.16c-.13-.23-.27-.4-.41-.5a.775.775 0 0 0-.47-.17c-.79 0-1.66.7-2.59 2.09-1.02 1.53-1.53 2.83-1.53 3.9 0 .26.05.46.15.59.09.14.24.21.44.21.51 0 1.09-.54 1.76-1.6.37-.58.84-1.45 1.39-2.59.37-.74.64-1.23.8-1.47.09-.13.24-.27.46-.46z"/><path id="25" class="fil0" d="M143.18 53.41a30.87 30.87 0 0 1 3.53-3.2c.48-.38 1-.73 1.54-1.05.27-.16.44-.24.51-.24.16 0 .31.11.47.34.09.12.14.24.14.34 0 .19-.2.44-.59.76-1.06.84-1.59 1.48-1.59 1.91 0 .24.14.35.41.35.44 0 1.21-.37 2.29-1.11.19-.12.35-.18.47-.18.08 0 .16.04.25.12.09.1.14.2.14.3 0 .31-.44.79-1.31 1.44-.91.69-1.78 1.04-2.6 1.04-.33 0-.64-.09-.92-.27-.24-.14-.36-.4-.36-.78 0-.26.11-.56.33-.89-.82.58-1.79 1.59-2.91 3.01-.65.87-1.29 1.95-1.93 3.23-.24.48-.54.72-.89.72-.39 0-.58-.18-.58-.54 0-.36.3-1.31.9-2.85.91-2.29 1.84-4.06 2.83-5.32.6-.79 1.11-1.18 1.51-1.18.14 0 .26.05.38.13.13.1.2.23.2.39s-.1.37-.31.66l-.83 1.04a8.41 8.41 0 0 0-1.08 1.83z"/><path id="26" class="fil0" d="M155.71 54.16c-.92 1.1-1.67 1.91-2.21 2.44-1.1 1.04-2.01 1.57-2.74 1.57-.35 0-.64-.13-.84-.39-.16-.21-.24-.47-.24-.78 0-1.13.67-2.62 2-4.48 1.35-1.89 2.33-2.84 2.93-2.84.17 0 .31.08.44.22.11.11.17.25.17.41 0 .23-.06.42-.18.6-.12.17-.46.55-1.02 1.14-.59.62-1.13 1.28-1.63 2-.57.81-.85 1.4-.85 1.77 0 .22.1.33.31.33.42 0 1.21-.57 2.36-1.71.73-.72 1.29-1.32 1.7-1.81.08-.1.45-.6 1.09-1.48.59-.79.95-1.25 1.08-1.4.32-.36.61-.55.88-.55.16 0 .32.08.45.22s.19.3.19.47c0 .31-.21.81-.63 1.52-.5.86-.96 1.67-1.37 2.42-.66 1.17-1.17 2.21-1.52 3.12.66-.38 1.27-.85 1.81-1.42.93-.94 1.49-1.63 1.7-2.09.2-.42.4-.63.6-.63.29 0 .44.15.44.44 0 .55-.47 1.37-1.4 2.47-1.12 1.31-2.49 2.44-4.12 3.36-.88 2.11-1.71 3.85-2.5 5.24-1.46 2.56-2.97 3.83-4.52 3.83-.64 0-1.15-.24-1.54-.73-.3-.38-.45-.85-.45-1.43 0-1.63 1.14-3.28 3.42-4.99.67-.5 1.66-1.12 2.97-1.87.54-.31.95-.55 1.26-.74.18-.48.47-1.12.84-1.91.43-.85.8-1.63 1.12-2.32zm-2.89 6.17c-1.1.56-2.23 1.36-3.38 2.41-1.16 1.07-1.74 2.07-1.74 3 0 .2.05.36.17.5.15.18.35.28.61.28.77 0 1.64-.82 2.58-2.45.16-.28.58-1.18 1.28-2.71.15-.31.31-.66.48-1.03z"/><path id="27" class="fil0" d="M162.4 57.4c.23 0 .42.1.58.31.1.14.15.31.15.51 0 .49-.13 1.01-.4 1.55-.28.57-.66.86-1.12.86-.48 0-.72-.27-.72-.81s.17-1.09.51-1.66c.3-.51.63-.76 1-.76z"/><path id="28" class="fil0" d="M173.18 48.85c.83 0 1.24.43 1.24 1.3 0 .77-.3 1.53-.89 2.3-.46.58-.86.88-1.2.88-.3 0-.44-.17-.44-.5 0-.18.04-.32.12-.43.03-.04.16-.16.37-.35.2-.18.39-.45.59-.8.13-.24.2-.44.2-.58 0-.16-.1-.25-.28-.25-.22 0-.56.17-1.01.52-.71.55-1.42 1.42-2.13 2.6-.73 1.22-1.09 2.19-1.09 2.9a1 1 0 0 0 .2.62c.2.27.46.4.8.4.65 0 1.43-.41 2.32-1.23.77-.69 1.41-1.4 1.92-2.1.28-.39.51-.58.71-.58.12 0 .22.05.31.16.08.1.13.2.13.31 0 .38-.5 1.14-1.49 2.25-1.57 1.76-3 2.63-4.28 2.63-.77 0-1.36-.28-1.76-.83-.29-.4-.43-.88-.43-1.44 0-1.08.45-2.33 1.34-3.76.87-1.37 1.87-2.47 3-3.3.67-.48 1.25-.72 1.75-.72z"/><path id="29" class="fil0" d="M182.28 48.47c.85 0 1.27.52 1.27 1.56 0 1.38-.64 3.14-1.91 5.26-1.39 2.3-2.74 3.45-4.03 3.45-.61 0-1.05-.28-1.33-.84-.14-.28-.22-.62-.22-1.01 0-1.34.46-2.78 1.38-4.35.84-1.44 1.85-2.57 3-3.37.68-.47 1.29-.7 1.84-.7zm-1.62 5.9c-.26-.21-.39-.37-.39-.48 0-.09.17-.32.5-.69.94-1.06 1.41-1.91 1.41-2.55 0-.09-.03-.17-.08-.25a.415.415 0 0 0-.39-.24c-.33 0-.82.33-1.47.97-.83.84-1.47 1.7-1.9 2.58-.51 1.01-.77 1.85-.77 2.52 0 .18.05.34.14.47.14.19.31.28.52.28.5 0 1.03-.37 1.61-1.12.25-.32.45-.64.6-.98.16-.33.23-.5.22-.51z"/><path id="30" class="fil0" d="M186.37 53.33c.88-.91 1.64-1.64 2.32-2.15 1.01-.79 1.69-1.18 2.03-1.18.17 0 .31.07.44.19.11.11.17.24.17.37 0 .2-.18.52-.55.97-.56.7-.95 1.31-1.17 1.8 2.45-2.43 4.12-3.65 5.02-3.65.19 0 .35.06.48.17a.6.6 0 0 1 .22.47c0 .3-.22.67-.67 1.13-1.98 2.03-2.98 3.7-2.98 5 0 .54.1.92.28 1.14l.4.52c.08.09.12.22.12.36 0 .16-.06.32-.2.47a.72.72 0 0 1-.53.25c-.34 0-.65-.22-.95-.66-.35-.52-.52-1.14-.52-1.85 0-.96.27-1.92.81-2.89.19-.35.5-.81.94-1.39-.89.68-1.79 1.6-2.7 2.77-.62.8-1.18 1.69-1.68 2.67-.24.47-.52.71-.84.71-.36 0-.53-.2-.53-.6 0-.42.29-1.31.87-2.65.34-.76.75-1.57 1.24-2.42-1.78 1.39-3.12 3.26-4.02 5.62-.22.52-.51.79-.88.79-.16 0-.3-.07-.4-.19a.644.644 0 0 1-.18-.45c0-.62.35-1.73 1.03-3.34.72-1.7 1.53-3.23 2.43-4.59.63-.95 1.11-1.42 1.45-1.42.32 0 .47.16.47.5 0 .15-.19.51-.57 1.09-.68 1.1-1.13 1.91-1.35 2.44z"/><path fill="none" d="M0 0h217.29v69.15H0z"/></g></g></svg>