<svg xmlns="http://www.w3.org/2000/svg" width="46" height="46" viewBox="0 0 12.09 12.09" shape-rendering="geometricPrecision" text-rendering="geometricPrecision" image-rendering="optimizeQuality" fill-rule="evenodd" clip-rule="evenodd"><defs><radialGradient id="a" gradientUnits="userSpaceOnUse" gradientTransform="rotate(-90 6.5 7.5) scale(1.18794)" cx="6.29" cy="6.29" r="2.86" fx="6.29" fy="6.29"><stop offset="0" stop-color="#ff6"/><stop offset="1" stop-color="#f60"/></radialGradient></defs><path d="M6.05 0c3.33 0 6.04 2.71 6.04 6.05 0 3.33-2.71 6.04-6.04 6.04C2.71 12.09 0 9.38 0 6.05 0 2.71 2.71 0 6.05 0zm2.51 6.28l1.1 1.92-.86-.24a3.35 3.35 0 0 1-5.59-.12v-.01l.68-.39-2.15-.58-.58 2.15.72-.41a4.9 4.9 0 0 0 5.43 2.16 4.893 4.893 0 0 0 3.47-3.5.708.708 0 0 0-.5-.85l-.88-.24-1.3-.35a2.068 2.068 0 0 0-2.05-1.84c-.53 0-1.01.2-1.37.52l.76.2-1.91 1.11-1.11-1.92.87.24c.44-.63 1.09-1.11 1.89-1.33 1.45-.38 2.94.24 3.7 1.45l-.69.4 2.15.58.58-2.15-.71.41a4.905 4.905 0 0 0-5.43-2.16 4.86 4.86 0 0 0-3.47 3.54c-.1.37.13.75.49.84l.17.05.72.19L4 6.3c.13 1.02.99 1.81 2.05 1.81.52 0 1-.2 1.36-.52l-.77-.2 1.92-1.11z" fill="url(#a)"/></svg>