<svg xmlns="http://www.w3.org/2000/svg" width="736" height="234" viewBox="0 0 216.74 68.98" shape-rendering="geometricPrecision" text-rendering="geometricPrecision" image-rendering="optimizeQuality" fill-rule="evenodd" clip-rule="evenodd"><defs><style>.fil0,.fil1,.fil2{fill:#f2f7fa;fill-rule:nonzero}.fil0,.fil1{fill:#f7fcff}.fil1{fill:#f60}</style></defs><g id="Layer_x0020_1"><g id="_2921539066208"><path class="fil0" d="M22.14 18.76c0 1.15-.22 2.16-.66 3.04a6.21 6.21 0 0 1-1.76 2.16c-.88.69-1.84 1.18-2.88 1.47-1.05.29-2.38.43-3.98.43H3.55V2.65h8.22c1.7 0 3 .07 3.87.2.89.13 1.71.4 2.48.81.83.45 1.46 1.05 1.87 1.8.41.75.61 1.61.61 2.59 0 1.13-.28 2.14-.85 3.02-.56.88-1.35 1.53-2.34 1.95v.13c1.43.3 2.57.91 3.43 1.84.87.93 1.3 2.19 1.3 3.77zm-7.47-9.55c0-.37-.1-.76-.29-1.16a1.7 1.7 0 0 0-.9-.85c-.38-.17-.84-.26-1.36-.28-.53-.01-1.31-.02-2.35-.02h-.4v4.92h.73c.99 0 1.69-.01 2.1-.04.4-.02.81-.12 1.24-.33.46-.21.78-.51.96-.9.17-.38.27-.83.27-1.34zm1.46 9.45c0-.72-.14-1.28-.43-1.68-.29-.41-.73-.72-1.31-.92-.36-.14-.84-.22-1.46-.23-.62-.02-1.45-.02-2.49-.02H9.37v5.81h.31c1.52 0 2.56-.01 3.15-.03.58-.03 1.17-.16 1.78-.42.52-.23.91-.57 1.16-1.01.24-.44.36-.94.36-1.5z"/><path id="1" class="fil0" d="M30.6 25.86h-5.46V8.37h5.46v17.49zm.16-19.98h-5.78V1.63h5.78v4.25z"/><path id="2" class="fil0" d="M51.18 25.86h-5.45v-8.67c0-.71-.03-1.41-.09-2.11s-.16-1.22-.32-1.55c-.19-.39-.46-.68-.82-.85-.36-.17-.83-.26-1.42-.26-.46 0-.91.09-1.37.25a6.4 6.4 0 0 0-1.48.8v12.39h-5.46V8.37h5.46v1.94c.9-.77 1.77-1.36 2.62-1.78.84-.43 1.78-.64 2.81-.64 1.79 0 3.16.56 4.1 1.69.95 1.12 1.42 2.76 1.42 4.9v11.38z"/><path id="3" class="fil0" d="M64.85 21.29v-3.66c-.91.09-1.66.17-2.22.24-.57.07-1.12.2-1.67.4-.47.17-.84.42-1.11.76-.26.34-.39.79-.39 1.35 0 .83.22 1.39.65 1.7.44.31 1.09.46 1.95.46.47 0 .95-.11 1.45-.33.49-.21.94-.52 1.34-.92zm0 2.72c-.37.31-.7.59-1 .84-.29.25-.69.5-1.19.75-.48.24-.96.42-1.42.55-.46.13-1.1.19-1.93.19-1.54 0-2.83-.52-3.84-1.56-1.02-1.04-1.53-2.35-1.53-3.94 0-1.3.26-2.36.77-3.15.52-.81 1.26-1.45 2.24-1.91.98-.48 2.16-.82 3.53-1.01 1.36-.18 2.83-.32 4.41-.43v-.1c0-.96-.36-1.63-1.07-2-.71-.37-1.77-.55-3.19-.55-.64 0-1.39.12-2.25.35-.85.23-1.69.53-2.51.89h-.47V8.7c.55-.16 1.41-.34 2.62-.56 1.2-.21 2.42-.31 3.65-.31 3.01 0 5.2.5 6.58 1.5 1.38 1.01 2.06 2.54 2.06 4.6v11.93h-5.46v-1.85z"/><path id="4" class="fil0" d="M86.11 13.54h-.46c-.2-.07-.51-.13-.91-.17-.39-.04-.83-.05-1.31-.05-.57 0-1.18.08-1.8.25-.64.16-1.25.36-1.84.59v11.7h-5.46V8.37h5.46v2.5c.25-.22.59-.51 1.04-.86.44-.35.84-.63 1.21-.83.4-.24.86-.44 1.39-.62.52-.17 1.02-.26 1.49-.26.18 0 .37.01.59.02.22.01.42.03.6.05v5.17z"/><path id="5" class="fil0" d="M104.52 8.37l-8.83 23.91h-5.86l2.65-6.84-6.42-17.07h5.74l3.67 10.97L98.9 8.37z"/><path id="6" class="fil0" d="M136.82 2.65l-5.88 23.21h-6.39l-3.72-14.35-3.59 14.35h-6.41l-5.88-23.21h6.07l3.19 15.53 3.88-15.53h5.78l3.69 15.57 3.36-15.57z"/><path id="7" class="fil0" d="M148.35 26.34c-3.31 0-5.85-.78-7.62-2.36-1.76-1.59-2.64-3.84-2.64-6.76 0-2.85.82-5.13 2.47-6.84 1.64-1.7 3.95-2.55 6.9-2.55 2.69 0 4.71.72 6.06 2.17 1.36 1.44 2.03 3.51 2.03 6.21v1.96h-12c.05.81.22 1.49.51 2.04.3.55.68.98 1.16 1.3.47.32 1.02.55 1.64.69.63.15 1.31.22 2.05.22.64 0 1.26-.07 1.88-.22.62-.14 1.18-.33 1.69-.56.45-.2.86-.42 1.24-.65.39-.23.69-.44.93-.62h.58v4.52c-.44.18-.85.34-1.22.49-.37.15-.88.31-1.52.46-.6.16-1.21.28-1.84.37-.63.09-1.4.13-2.3.13zm1.84-11.46c-.03-1.16-.3-2.05-.81-2.66-.51-.61-1.29-.91-2.34-.91-1.07 0-1.91.31-2.51.96-.6.64-.93 1.51-1 2.61h6.66z"/><path id="8" class="fil0" d="M169.91 16.99c0-1.74-.26-2.99-.79-3.73-.53-.75-1.35-1.12-2.45-1.12-.49 0-.98.08-1.46.23-.48.15-.96.39-1.43.7v8.78c.37.15.73.25 1.11.29.36.06.73.08 1.09.08 1.33 0 2.31-.43 2.96-1.3.65-.88.97-2.18.97-3.93zm5.59-.11c0 2.79-.71 5.04-2.12 6.75-1.42 1.72-3.17 2.59-5.26 2.59-.87 0-1.63-.11-2.28-.3-.64-.2-1.33-.51-2.06-.93l-.23.87h-5.22V1.6h5.45v8.6c.81-.69 1.62-1.25 2.45-1.67.84-.43 1.8-.64 2.89-.64 2.04 0 3.61.79 4.72 2.38 1.11 1.59 1.66 3.8 1.66 6.61z"/><path id="9" class="fil1" d="M184.18 25.86h-5.52v-6.13h5.52z"/><path id="10" class="fil1" d="M193.93 25.86h-5.46V8.37h5.46v17.49zm.16-19.98h-5.77V1.63h5.77v4.25z"/><path id="11" class="fil1" d="M214.04 25.86h-5.46v-1.82c-.35.29-.76.61-1.21.94-.45.33-.85.58-1.2.75-.43.2-.86.36-1.3.46-.42.1-.93.15-1.53.15-2 0-3.58-.82-4.75-2.47-1.17-1.66-1.76-3.86-1.76-6.62 0-1.53.2-2.85.6-3.97.39-1.12.94-2.1 1.64-2.93.64-.76 1.41-1.36 2.32-1.8.9-.44 1.86-.66 2.88-.66.91 0 1.67.1 2.25.29.59.19 1.28.49 2.06.9V1.6h5.46v24.26zm-5.46-4.81v-8.64c-.27-.13-.62-.24-1.06-.33-.44-.09-.82-.14-1.13-.14-1.32 0-2.31.46-2.97 1.38-.67.92-1 2.21-1 3.85 0 1.74.27 3 .79 3.77.53.77 1.39 1.16 2.57 1.16.48 0 .96-.1 1.46-.29.49-.18.93-.44 1.34-.76z"/><path id="12" class="fil2" d="M6.41 50.96l-.21.46c-1.08 2.24-1.8 3.84-2.17 4.8-.56 1.49-.87 2.36-.95 2.61-.22.7-.5 1.04-.86 1.04-.25 0-.46-.11-.63-.34a1 1 0 0 1-.24-.64c0-.89 1.14-3.71 3.42-8.46-.41-.31-.61-.63-.61-.93 0-.24.1-.45.3-.63.18-.15.37-.22.57-.22.15 0 .34.04.58.11 1.7-3.23 2.69-5.29 2.98-6.17-.26.14-.59.35-1 .62-.23.15-.43.22-.61.22-.2 0-.35-.1-.48-.3a.787.787 0 0 1-.12-.42c0-.48.42-1.01 1.26-1.57.68-.45 1.31-.82 1.89-1.12.09-.25.15-.42.17-.51.1-.4.21-.66.33-.8.11-.13.29-.2.53-.2.49 0 .73.27.73.82.72-.21 1.35-.36 1.91-.47.55-.1 1.02-.16 1.4-.16 1.01 0 1.86.39 2.56 1.16.66.73.99 1.54.99 2.45 0 1.57-.66 3.14-1.97 4.71-1.12 1.34-2.51 2.37-4.17 3.12-1.44.64-2.87.96-4.3.96-.35 0-.78-.05-1.3-.14zm4.35-9.52c-.34 1.03-.9 2.35-1.68 3.96-.96 1.95-1.58 3.23-1.86 3.83.57.12.97.18 1.2.18 1.19 0 2.57-.48 4.15-1.44 1.54-.94 2.73-2.1 3.6-3.48.53-.85.79-1.59.79-2.25 0-.59-.2-1.04-.6-1.33-.4-.3-1-.45-1.82-.45-.61 0-1.23.08-1.86.24-.63.16-1.27.41-1.92.74z"/><path id="13" class="fil2" d="M20.29 48.35c.85 0 1.27.52 1.27 1.56 0 1.37-.64 3.12-1.91 5.24-1.39 2.3-2.73 3.44-4.02 3.44-.6 0-1.04-.28-1.32-.84-.14-.28-.22-.61-.22-1.01 0-1.33.46-2.77 1.37-4.33.84-1.44 1.84-2.56 2.99-3.36.68-.47 1.29-.7 1.84-.7zm-1.61 5.89c-.26-.22-.39-.38-.39-.49 0-.08.16-.31.49-.68.94-1.06 1.41-1.9 1.41-2.55 0-.08-.03-.16-.08-.25a.413.413 0 0 0-.39-.23c-.33 0-.82.32-1.46.97-.83.83-1.47 1.68-1.9 2.57-.51 1.01-.77 1.84-.77 2.51 0 .18.05.33.14.47.14.18.31.28.52.28.5 0 1.03-.37 1.6-1.12.25-.32.45-.64.61-.97.15-.33.23-.51.22-.51z"/><path id="14" class="fil2" d="M27.14 54.05c-.89 1.21-1.55 2.04-1.98 2.5-.53.57-.99 1.01-1.37 1.31-.44.32-.84.48-1.22.48-.36 0-.64-.18-.84-.54-.15-.29-.23-.6-.23-.94 0-1.13.67-2.69 2.03-4.67 1.22-1.8 2.13-2.69 2.72-2.69.15 0 .29.06.43.2.12.12.18.27.18.43 0 .23-.2.55-.61.96-.86.85-1.61 1.81-2.25 2.88-.54.91-.81 1.51-.81 1.79 0 .21.1.31.28.31.62 0 1.98-1.35 4.06-4.05.68-.87 1.09-1.37 1.23-1.51.27-.25.55-.38.83-.38.19 0 .35.06.49.16.11.1.17.21.17.33 0 .12-.25.64-.75 1.57-1.14 1.98-1.71 3.33-1.71 4.02 0 .27.11.41.33.41.37 0 .89-.44 1.54-1.3.62-.81 1.2-1.83 1.73-3.08.23-.54.44-1.25.61-2.13.21-1 .63-1.51 1.26-1.51.35 0 .53.2.53.59 0 1.36-.76 3.24-2.28 5.62-1.58 2.48-2.91 3.72-3.99 3.72-.8 0-1.2-.49-1.2-1.48 0-.81.28-1.81.82-3z"/><path id="15" class="fil2" d="M35 55.4v.28c0 .23.06.42.17.59.26.38.69.57 1.28.57 1.3 0 2.8-1 4.51-3 .3-.34.56-.51.76-.51.12 0 .22.06.31.17.07.09.1.16.1.24 0 .4-.5 1.09-1.5 2.06-.78.75-1.61 1.37-2.49 1.85-.89.48-1.71.72-2.47.72-.78 0-1.39-.27-1.84-.81-.31-.37-.46-.88-.46-1.52 0-1.76.83-3.48 2.48-5.16 1.34-1.37 2.51-2.06 3.51-2.06.27 0 .51.09.73.26.27.21.4.5.4.85 0 .55-.25 1.23-.76 2.03-1.04 1.66-2.62 2.81-4.73 3.44zm.35-1.21c.73-.25 1.3-.53 1.72-.85.72-.56 1.3-1.19 1.72-1.9.16-.25.24-.48.24-.67 0-.21-.11-.32-.3-.32-.27 0-.65.21-1.15.62-.89.71-1.64 1.75-2.23 3.12z"/><path id="16" class="fil2" d="M45.38 53.28a30.74 30.74 0 0 1 3.52-3.2c.48-.37.99-.72 1.53-1.05.27-.16.44-.24.51-.24.16 0 .31.11.47.34.09.13.14.24.14.34 0 .19-.2.45-.59.77-1.05.84-1.58 1.47-1.58 1.89 0 .24.13.36.41.36.44 0 1.2-.37 2.28-1.11.19-.12.34-.18.47-.18.08 0 .16.04.25.13s.13.19.13.29c0 .31-.43.79-1.3 1.44-.91.69-1.78 1.03-2.6 1.03-.33 0-.63-.09-.91-.26-.24-.15-.36-.41-.36-.78 0-.26.11-.56.33-.89-.82.58-1.79 1.58-2.91 3-.64.87-1.28 1.94-1.92 3.23-.24.48-.54.72-.89.72-.39 0-.58-.19-.58-.55 0-.35.31-1.3.91-2.84.9-2.28 1.83-4.05 2.81-5.31.6-.78 1.11-1.17 1.51-1.17.14 0 .26.04.38.12.13.11.2.24.2.4 0 .15-.1.37-.31.65l-.83 1.04c-.46.62-.82 1.23-1.07 1.83z"/><path id="17" class="fil2" d="M53.52 55.4v.28c0 .23.06.42.17.59.26.38.69.57 1.28.57 1.3 0 2.8-1 4.5-3 .31-.34.56-.51.77-.51.11 0 .22.06.31.17.06.09.1.16.1.24 0 .4-.5 1.09-1.5 2.06-.78.75-1.61 1.37-2.5 1.85-.88.48-1.7.72-2.46.72-.78 0-1.39-.27-1.85-.81-.3-.37-.45-.88-.45-1.52 0-1.76.83-3.48 2.48-5.16 1.34-1.37 2.51-2.06 3.5-2.06.27 0 .52.09.74.26.27.21.4.5.4.85 0 .55-.25 1.23-.76 2.03-1.05 1.66-2.62 2.81-4.73 3.44zm.35-1.21c.73-.25 1.3-.53 1.72-.85.72-.56 1.29-1.19 1.72-1.9.15-.25.23-.48.23-.67 0-.21-.1-.32-.29-.32-.27 0-.65.21-1.15.62-.89.71-1.64 1.75-2.23 3.12z"/><path id="18" class="fil2" d="M67.36 49.31c1.04-2.17 2.02-4.06 2.95-5.67.89-1.56 1.5-2.55 1.82-2.95.36-.45.69-.67 1-.67.16 0 .32.07.45.2.13.14.19.28.19.44 0 .24-.18.64-.53 1.2-1.51 2.43-2.89 4.9-4.15 7.41-1.47 2.91-2.21 5.09-2.21 6.55 0 .59.11 1.06.34 1.4.04.07.23.24.56.5.07.04.1.15.1.31 0 .2-.09.39-.25.56-.16.18-.34.26-.54.26-.23 0-.5-.14-.79-.43-.42-.41-.67-.89-.75-1.43-.03-.23-.07-.66-.11-1.28-1.09 1.96-2.12 2.95-3.11 2.95-.57 0-1.02-.33-1.37-.97-.23-.43-.34-.9-.34-1.45 0-1.61.59-3.25 1.78-4.89 1.18-1.62 2.45-2.43 3.81-2.43.37 0 .76.13 1.15.39zm-.53 1.28c-.28-.2-.52-.3-.73-.3-.88 0-1.71.54-2.5 1.61-1.03 1.4-1.54 2.75-1.54 4.04 0 .16.03.31.09.45.12.26.32.39.57.39.36 0 .8-.36 1.33-1.06.7-.94 1.35-2.04 1.95-3.32.21-.44.41-.87.61-1.31 0 0 .04-.1.13-.3l.09-.2z"/><path id="19" class="fil2" d="M81.86 50.2c.88-.75 1.68-1.12 2.39-1.12.44 0 .8.18 1.08.55.26.32.39.7.39 1.12 0 .82-.27 1.8-.8 2.95-.59 1.29-1.45 2.48-2.57 3.59-.93.91-1.81 1.37-2.65 1.37-.32 0-.6-.06-.86-.17-.25-.12-.47-.29-.68-.52-.08.15-.13.24-.15.28-.18.39-.3.62-.37.7-.07.08-.17.12-.32.12-.18 0-.36-.11-.53-.33a.727.727 0 0 1-.17-.46c0-.29.6-1.77 1.79-4.42 1.67-3.7 3.61-7.39 5.81-11.05.89-1.49 1.44-2.37 1.64-2.63.22-.31.42-.47.61-.47.23 0 .43.12.61.35.11.14.17.31.17.51 0 .21-.1.49-.3.83-.03.07-.36.6-.98 1.6-1.88 2.91-3.25 5.31-4.11 7.2zm-3.1 6.3c.15.21.31.37.48.47.16.1.33.16.5.16.91 0 1.87-.79 2.88-2.37.47-.71.84-1.41 1.11-2.11.24-.63.36-1.09.36-1.39 0-.22-.05-.37-.14-.47-.09-.1-.24-.14-.44-.14-.48 0-1.06.32-1.73.98-.68.65-1.35 1.58-2 2.8-.32.59-.59 1.14-.82 1.65-.13.28-.2.42-.2.42z"/><path id="20" class="fil2" d="M91.84 54.03c-.92 1.09-1.66 1.9-2.21 2.43-1.09 1.04-2 1.56-2.73 1.56-.35 0-.63-.13-.84-.39a1.31 1.31 0 0 1-.23-.78c0-1.12.66-2.6 1.99-4.46 1.35-1.89 2.32-2.83 2.92-2.83.17 0 .31.07.44.22.11.11.17.25.17.4 0 .23-.06.43-.18.6-.12.17-.45.55-1.01 1.14-.59.61-1.14 1.27-1.63 1.99-.57.81-.85 1.4-.85 1.77 0 .22.1.33.31.33.42 0 1.2-.57 2.35-1.7.73-.72 1.29-1.32 1.7-1.81.08-.1.45-.6 1.09-1.48.58-.78.94-1.25 1.08-1.39.31-.37.6-.55.87-.55.16 0 .32.07.45.22.13.13.19.29.19.47 0 .3-.21.8-.63 1.51-.5.86-.95 1.66-1.37 2.41-.65 1.17-1.16 2.21-1.51 3.12.66-.38 1.26-.85 1.8-1.42.93-.94 1.49-1.63 1.7-2.08.2-.42.4-.63.6-.63.29 0 .43.15.43.44 0 .55-.46 1.37-1.39 2.46-1.11 1.31-2.48 2.43-4.11 3.36-.88 2.1-1.71 3.84-2.49 5.22-1.46 2.55-2.96 3.82-4.52 3.82-.63 0-1.14-.24-1.53-.73-.3-.38-.45-.85-.45-1.42 0-1.63 1.14-3.28 3.42-4.98.66-.5 1.65-1.12 2.96-1.87.53-.31.95-.54 1.25-.74.18-.48.47-1.11.85-1.9.42-.85.79-1.62 1.11-2.31zm-2.88 6.15c-1.1.56-2.22 1.36-3.37 2.4-1.16 1.07-1.74 2.07-1.74 2.99 0 .2.05.37.17.5.15.19.35.28.6.28.78 0 1.64-.81 2.58-2.44.16-.28.58-1.18 1.28-2.7.14-.32.3-.66.48-1.03z"/><path id="21" class="fil2" d="M114.84 47.4c.98.36 1.71.8 2.21 1.33.86.89 1.29 1.93 1.29 3.11 0 1.43-.43 2.78-1.3 4.06a8.937 8.937 0 0 1-3.1 2.79c-1.27.68-2.57 1.02-3.91 1.02-1.04 0-2.16-.26-3.37-.79-.1.28-.15.46-.17.56-.14.49-.35.73-.65.73-.29 0-.56-.17-.77-.51-.16-.24-.24-.49-.24-.74 0-.36.23-1.12.69-2.29.94-2.39 1.75-4.26 2.46-5.62.43-.84 1.34-2.44 2.71-4.8.6-1.02 1.47-2.41 2.6-4.16.27-.42.53-.84.78-1.26-.52.17-1.17.43-1.95.81-.66.31-1.05.46-1.17.46-.15 0-.29-.07-.4-.23a.913.913 0 0 1-.17-.54c0-.33.11-.56.33-.7.39-.28 1.1-.63 2.11-1.05 2.13-.86 3.85-1.29 5.16-1.29 1.1 0 2 .28 2.68.82.69.56 1.03 1.24 1.03 2.08 0 1.71-.99 3.19-2.97 4.44-1.2.75-2.5 1.34-3.88 1.77zm-2.35-.94c1.77-.32 3.43-.95 4.99-1.89 1.8-1.09 2.71-2.18 2.71-3.26 0-.5-.24-.89-.72-1.17-.31-.19-.74-.29-1.3-.29-.36 0-.76.04-1.17.12-.42.08-.86.2-1.32.35.17.14.26.31.26.5 0 .27-.17.64-.51 1.1-.12.15-.33.46-.63.92-.11.2-.46.72-1.04 1.57-.57.85-.99 1.53-1.27 2.05zm-5.39 11.15c.35.2.61.34.78.4.45.17 1.04.27 1.78.27 2.21 0 3.98-.88 5.32-2.63 1.13-1.48 1.7-2.94 1.7-4.37 0-.97-.43-1.74-1.3-2.31-.51-.33-1.1-.5-1.79-.5-.26 0-.65.06-1.15.17-.1.03-.2.04-.29.04-.25 0-.45-.18-.62-.55-.83 1.26-1.77 3.03-2.81 5.3-.53 1.16-1.07 2.55-1.62 4.18z"/><path id="22" class="fil2" d="M123.38 49.05c.17 0 .32.07.43.2.08.12.13.23.13.35 0 .18-.15.49-.46.93-1.07 1.67-1.84 3.05-2.3 4.13a33.57 33.57 0 0 0-1.29 3.43c-.16.53-.42.79-.78.79a.63.63 0 0 1-.5-.25.717.717 0 0 1-.17-.44c0-.31.33-1.35 1-3.12.52-1.39 1.36-2.94 2.52-4.62.37-.55.66-.92.84-1.1.19-.2.38-.3.58-.3zm2.95-5.78c.47 0 .7.24.7.72 0 .43-.23.92-.68 1.45-.44.51-.86.77-1.27.77-.19 0-.35-.08-.48-.22a.74.74 0 0 1-.19-.5c0-.5.28-1.03.83-1.6.4-.41.77-.62 1.09-.62z"/><path id="23" class="fil2" d="M126.41 53.06c.13-.12.27-.25.39-.37 2.16-2.13 3.61-3.19 4.35-3.19.4 0 .6.22.6.67 0 .31-.18.68-.54 1.1-1.98 2.32-2.97 4.36-2.97 6.13 0 .57.15 1.11.47 1.64.14.24.22.42.22.56 0 .12-.07.24-.19.36a.66.66 0 0 1-.48.21c-.42 0-.78-.27-1.07-.8-.28-.51-.42-1.13-.42-1.86 0-1.41.52-2.96 1.57-4.66-1.41.9-2.72 2.5-3.93 4.8-.32.55-.65.83-1 .83a.58.58 0 0 1-.44-.19.746.746 0 0 1-.22-.56c0-.56.64-2.04 1.92-4.41.69-1.29 1.23-2.23 1.62-2.81.4-.57.74-.85 1.02-.85.14 0 .26.06.39.18.15.15.22.32.22.5 0 .23-.15.56-.45.99-.44.63-.79 1.21-1.06 1.73z"/><path id="24" class="fil2" d="M136.3 55.82c-.34.6-.68 1.11-1.01 1.53-.66.81-1.31 1.21-1.95 1.21-.57 0-1-.26-1.31-.8-.2-.34-.3-.74-.3-1.21 0-1.15.36-2.43 1.09-3.82.82-1.55 1.79-2.74 2.94-3.58.74-.53 1.47-.8 2.16-.8.44 0 .81.13 1.1.4.25.24.37.51.37.81 0 .23-.09.55-.26.96.16.22.23.41.23.58 0 .22-.14.57-.43 1.07-.3.51-.61 1.19-.9 2.03-.33.9-.49 1.62-.49 2.16 0 .44.13.79.39 1.07.07.08.29.2.64.37.26.12.39.34.39.65 0 .2-.07.36-.22.49a.84.84 0 0 1-.54.2c-.57 0-1.05-.26-1.46-.76-.34-.41-.51-.92-.51-1.53 0-.21.02-.55.07-1.03zm1.95-5.14c-.12-.23-.26-.4-.41-.51a.736.736 0 0 0-.46-.16c-.8 0-1.66.69-2.58 2.08-1.03 1.53-1.54 2.82-1.54 3.89 0 .26.05.45.15.59.1.14.25.21.45.21.5 0 1.08-.54 1.75-1.6.37-.58.84-1.44 1.39-2.58.37-.74.63-1.23.8-1.47.08-.12.23-.27.45-.45z"/><path id="25" class="fil2" d="M142.83 53.28c1.01-1.09 2.19-2.16 3.52-3.2.48-.37.99-.72 1.52-1.05.28-.16.45-.24.52-.24.16 0 .31.11.47.34.09.13.14.24.14.34 0 .19-.2.45-.59.77-1.06.84-1.58 1.47-1.58 1.89 0 .24.13.36.4.36.44 0 1.21-.37 2.29-1.11.19-.12.34-.18.46-.18.09 0 .17.04.25.13.09.09.14.19.14.29 0 .31-.44.79-1.3 1.44-.91.69-1.78 1.03-2.6 1.03-.33 0-.63-.09-.91-.26-.24-.15-.36-.41-.36-.78 0-.26.11-.56.33-.89-.83.58-1.79 1.58-2.91 3-.65.87-1.28 1.94-1.92 3.23-.24.48-.54.72-.89.72-.39 0-.58-.19-.58-.55 0-.35.3-1.3.9-2.84.9-2.28 1.84-4.05 2.82-5.31.6-.78 1.1-1.17 1.51-1.17.14 0 .26.04.38.12.13.11.2.24.2.4 0 .15-.11.37-.32.65-.03.05-.31.4-.82 1.04-.47.62-.82 1.23-1.07 1.83z"/><path id="26" class="fil2" d="M155.32 54.03c-.92 1.09-1.66 1.9-2.21 2.43-1.09 1.04-2 1.56-2.73 1.56-.35 0-.63-.13-.84-.39a1.31 1.31 0 0 1-.23-.78c0-1.12.66-2.6 1.99-4.46 1.35-1.89 2.32-2.83 2.92-2.83.17 0 .31.07.44.22.11.11.17.25.17.4 0 .23-.06.43-.18.6-.12.17-.45.55-1.01 1.14-.59.61-1.14 1.27-1.63 1.99-.57.81-.85 1.4-.85 1.77 0 .22.1.33.31.33.42 0 1.2-.57 2.35-1.7.73-.72 1.29-1.32 1.7-1.81.08-.1.45-.6 1.09-1.48.58-.78.94-1.25 1.08-1.39.31-.37.6-.55.87-.55.17 0 .32.07.45.22.13.13.19.29.19.47 0 .3-.21.8-.62 1.51-.5.86-.96 1.66-1.38 2.41-.65 1.17-1.16 2.21-1.51 3.12.66-.38 1.26-.85 1.81-1.42.92-.94 1.49-1.63 1.69-2.08.2-.42.4-.63.6-.63.29 0 .44.15.44.44 0 .55-.47 1.37-1.4 2.46-1.11 1.31-2.48 2.43-4.11 3.36-.87 2.1-1.7 3.84-2.49 5.22-1.45 2.55-2.96 3.82-4.51 3.82-.64 0-1.15-.24-1.54-.73-.3-.38-.45-.85-.45-1.42 0-1.63 1.14-3.28 3.42-4.98.66-.5 1.65-1.12 2.96-1.87.53-.31.95-.54 1.25-.74.18-.48.47-1.11.85-1.9.42-.85.79-1.62 1.11-2.31zm-2.88 6.15c-1.1.56-2.22 1.36-3.37 2.4-1.16 1.07-1.74 2.07-1.74 2.99 0 .2.06.37.17.5.15.19.35.28.6.28.78 0 1.64-.81 2.58-2.44.16-.28.58-1.18 1.28-2.7.15-.32.31-.66.48-1.03z"/><path id="27" class="fil2" d="M161.99 57.25c.23 0 .42.11.58.32.1.13.16.3.16.51 0 .49-.14 1-.41 1.54-.28.57-.65.86-1.11.86-.48 0-.72-.27-.72-.81s.17-1.09.5-1.66c.3-.5.63-.76 1-.76z"/><path id="28" class="fil2" d="M172.75 48.73c.82 0 1.23.43 1.23 1.3 0 .76-.3 1.52-.89 2.29-.46.58-.85.87-1.2.87-.29 0-.43-.16-.43-.5 0-.17.04-.31.12-.42.03-.04.16-.16.37-.35.19-.18.39-.44.58-.8.14-.24.21-.43.21-.58 0-.16-.1-.25-.29-.25-.21 0-.55.17-1 .52-.7.55-1.41 1.42-2.12 2.59-.73 1.23-1.1 2.19-1.1 2.9 0 .23.07.43.21.61.19.27.46.41.79.41.66 0 1.43-.41 2.32-1.23.77-.69 1.4-1.4 1.92-2.09.27-.39.51-.58.7-.58.12 0 .22.05.32.15.08.11.12.21.12.32 0 .38-.5 1.13-1.48 2.24-1.57 1.75-3 2.62-4.27 2.62-.77 0-1.36-.27-1.76-.82-.29-.4-.43-.88-.43-1.44 0-1.08.45-2.33 1.34-3.75.86-1.37 1.86-2.46 2.99-3.29.67-.48 1.25-.72 1.75-.72z"/><path id="29" class="fil2" d="M181.82 48.35c.85 0 1.28.52 1.28 1.56 0 1.37-.64 3.12-1.91 5.24-1.39 2.3-2.73 3.44-4.03 3.44-.6 0-1.04-.28-1.32-.84-.14-.28-.22-.61-.22-1.01 0-1.33.46-2.77 1.37-4.33.85-1.44 1.85-2.56 3-3.36.67-.47 1.29-.7 1.83-.7zm-1.61 5.89c-.26-.22-.39-.38-.39-.49 0-.08.17-.31.5-.68.93-1.06 1.4-1.9 1.4-2.55 0-.08-.02-.16-.08-.25a.413.413 0 0 0-.39-.23c-.33 0-.81.32-1.46.97-.83.83-1.46 1.68-1.9 2.57-.51 1.01-.76 1.84-.76 2.51 0 .18.04.33.13.47.14.18.31.28.52.28.5 0 1.03-.37 1.61-1.12.25-.32.45-.64.6-.97.16-.33.23-.51.22-.51z"/><path id="30" class="fil2" d="M185.91 53.2c.87-.92 1.63-1.63 2.3-2.15 1.02-.78 1.69-1.17 2.03-1.17.17 0 .32.06.44.18s.17.24.17.38c0 .19-.18.51-.54.96-.56.7-.95 1.3-1.17 1.8 2.44-2.43 4.1-3.64 5-3.64.19 0 .35.06.49.17.14.13.21.28.21.47 0 .29-.22.66-.67 1.12-1.98 2.03-2.97 3.69-2.97 4.99 0 .53.1.91.28 1.14l.4.52c.08.09.12.21.12.35 0 .17-.07.33-.2.47-.15.17-.33.25-.53.25-.34 0-.65-.22-.94-.66-.35-.52-.53-1.14-.53-1.84 0-.96.27-1.91.81-2.89.19-.34.5-.8.94-1.38-.89.67-1.78 1.59-2.7 2.76-.61.8-1.17 1.69-1.67 2.67-.24.47-.52.7-.84.7-.36 0-.53-.19-.53-.59 0-.43.29-1.31.87-2.65.34-.76.75-1.56 1.24-2.41-1.78 1.38-3.12 3.25-4.01 5.61-.22.52-.51.78-.88.78-.16 0-.3-.07-.4-.19a.681.681 0 0 1-.17-.45c0-.62.34-1.72 1.02-3.33.72-1.69 1.53-3.22 2.43-4.57.62-.95 1.1-1.42 1.44-1.42.32 0 .47.16.47.5 0 .14-.19.5-.57 1.09-.68 1.09-1.13 1.9-1.34 2.43z"/><path fill="none" d="M0 0h216.74v68.98H0z"/></g></g></svg>