<svg xmlns="http://www.w3.org/2000/svg" width="1054" height="293" viewBox="0 0 354.75 98.5" shape-rendering="geometricPrecision" text-rendering="geometricPrecision" image-rendering="optimizeQuality" fill-rule="evenodd" clip-rule="evenodd"><defs><style>.fil0,.fil1{fill:#f60;fill-rule:nonzero}.fil0{fill:#fff}</style><radialGradient id="id0" gradientUnits="userSpaceOnUse" gradientTransform="rotate(-90 55 59) scale(1.18794)" cx="54.41" cy="49.49" r="22.13" fx="54.41" fy="49.49"><stop offset="0" stop-color="#ff6"/><stop offset="1" stop-color="#f60"/></radialGradient></defs><g id="Layer_x0020_1"><g id="_2921544481344"><path class="fil0" d="M132.58 33.39c0 1.32-.25 2.48-.75 3.48s-1.17 1.82-2.01 2.48c-1.01.78-2.1 1.34-3.3 1.67-1.19.34-2.72.5-4.55.5h-10.64V14.98h9.39c1.95 0 3.43.07 4.43.23 1.02.14 1.96.45 2.84.93.95.51 1.66 1.2 2.13 2.05.47.85.71 1.84.71 2.96 0 1.29-.33 2.45-.98 3.46-.64 1.01-1.54 1.75-2.68 2.22v.15c1.64.35 2.94 1.05 3.93 2.11.99 1.07 1.48 2.5 1.48 4.3zm-8.54-10.91c0-.43-.11-.87-.33-1.32-.22-.45-.56-.78-1.03-.98-.44-.2-.96-.3-1.56-.32-.6-.02-1.5-.02-2.68-.02h-.46v5.62h.83c1.14 0 1.94-.01 2.4-.04.46-.02.93-.14 1.42-.38.53-.25.9-.59 1.1-1.03.2-.44.31-.95.31-1.53zm1.67 10.8c0-.82-.16-1.46-.49-1.92-.34-.47-.84-.82-1.5-1.05-.41-.16-.96-.25-1.67-.26-.71-.02-1.65-.03-2.85-.03h-1.22v6.65h.35c1.74 0 2.94-.02 3.61-.04a5.76 5.76 0 0 0 2.03-.48c.6-.26 1.04-.65 1.32-1.15.28-.51.42-1.08.42-1.72z"/><path id="1" class="fil0" d="M142.25 41.52h-6.24v-20h6.24v20zm.18-22.85h-6.6v-4.86h6.6v4.86z"/><path id="2" class="fil0" d="M165.79 41.52h-6.24V31.6c0-.81-.03-1.61-.1-2.41-.06-.81-.19-1.4-.37-1.77-.21-.45-.52-.78-.93-.98-.41-.19-.95-.29-1.63-.29-.52 0-1.03.1-1.56.29-.53.19-1.09.49-1.69.9v14.18h-6.24v-20h6.24v2.21c1.02-.87 2.02-1.55 2.99-2.03.97-.49 2.04-.73 3.22-.73 2.04 0 3.61.64 4.69 1.93 1.08 1.29 1.62 3.15 1.62 5.6v13.02z"/><path id="3" class="fil0" d="M181.42 36.29V32.1c-1.04.11-1.89.2-2.54.28-.65.07-1.28.23-1.91.46-.54.19-.96.48-1.27.86-.29.39-.45.91-.45 1.55 0 .95.25 1.59.75 1.94.51.36 1.24.53 2.22.53.54 0 1.1-.12 1.66-.37.57-.25 1.08-.61 1.54-1.06zm0 3.11c-.42.36-.81.68-1.14.96-.34.28-.79.57-1.36.86-.56.27-1.1.48-1.63.63-.52.15-1.26.22-2.21.22-1.76 0-3.23-.6-4.39-1.79-1.17-1.19-1.75-2.69-1.75-4.5 0-1.49.3-2.7.89-3.61.59-.92 1.44-1.65 2.55-2.19 1.13-.54 2.47-.93 4.04-1.14 1.56-.21 3.24-.38 5.04-.5v-.11c0-1.1-.41-1.87-1.22-2.29-.81-.42-2.02-.63-3.64-.63-.74 0-1.6.14-2.57.4-.98.27-1.95.61-2.88 1.03h-.53v-4.85c.62-.17 1.61-.39 2.99-.63 1.38-.24 2.77-.37 4.17-.37 3.44 0 5.95.58 7.53 1.73 1.57 1.15 2.36 2.9 2.36 5.26v13.64h-6.25V39.4z"/><path id="4" class="fil0" d="M205.72 27.43h-.51c-.24-.09-.59-.15-1.04-.2-.45-.04-.96-.06-1.51-.06-.65 0-1.34.1-2.06.29-.72.19-1.42.41-2.1.67v13.39h-6.25v-20h6.25v2.86c.28-.26.68-.59 1.19-.98.5-.41.97-.72 1.38-.96.46-.27.99-.5 1.59-.71.6-.19 1.17-.29 1.71-.29.2 0 .42.01.67.02.25.01.48.03.68.06v5.91z"/><path id="5" class="fil0" d="M226.78 21.52l-10.1 27.34h-6.7l3.03-7.82-7.33-19.52h6.55l4.2 12.54 3.93-12.54z"/><path id="6" class="fil0" d="M263.71 14.98l-6.72 26.54h-7.31l-4.25-16.41-4.11 16.41h-7.33l-6.71-26.54h6.93l3.65 17.75 4.43-17.75h6.62l4.21 17.8 3.85-17.8z"/><path id="7" class="fil0" d="M276.89 42.07c-3.78 0-6.68-.9-8.7-2.71-2.02-1.81-3.03-4.38-3.03-7.72 0-3.27.95-5.87 2.83-7.82 1.88-1.95 4.51-2.93 7.89-2.93 3.07 0 5.38.83 6.93 2.49 1.55 1.65 2.32 4.01 2.32 7.1v2.24h-13.72c.06.93.25 1.71.59 2.33.33.63.77 1.12 1.32 1.49.54.37 1.16.64 1.88.79.71.17 1.49.25 2.34.25.73 0 1.44-.08 2.15-.25.7-.16 1.35-.37 1.93-.64.51-.23.99-.48 1.42-.74.44-.27.79-.5 1.06-.71h.67v5.17c-.51.2-.98.39-1.4.56-.43.17-1.01.35-1.74.53-.68.17-1.38.31-2.1.42-.73.1-1.6.15-2.64.15zM279 28.96c-.04-1.33-.35-2.35-.93-3.04-.58-.7-1.47-1.05-2.67-1.05-1.23 0-2.18.37-2.87 1.11-.69.73-1.07 1.72-1.14 2.98H279z"/><path id="8" class="fil0" d="M301.55 31.38c0-2-.3-3.42-.9-4.27-.61-.86-1.55-1.29-2.81-1.29a5.4 5.4 0 0 0-1.67.27c-.55.18-1.09.44-1.63.8v10.04c.42.17.84.28 1.26.34.42.06.84.09 1.26.09 1.51 0 2.64-.5 3.38-1.5.74-1 1.11-2.49 1.11-4.48zm6.39-.13c0 3.18-.81 5.76-2.43 7.72-1.61 1.97-3.62 2.95-6.01 2.95-.99 0-1.86-.11-2.6-.34-.74-.23-1.52-.58-2.36-1.06l-.26 1h-5.98V13.78h6.24v9.83c.92-.79 1.85-1.43 2.8-1.91.96-.49 2.06-.73 3.31-.73 2.33 0 4.13.9 5.39 2.72 1.27 1.82 1.9 4.34 1.9 7.56z"/><path id="9" class="fil1" d="M317.87 41.52h-6.32v-7.01h6.32z"/><path id="10" class="fil1" d="M329.02 41.52h-6.24v-20h6.24v20zm.18-22.85h-6.61v-4.86h6.61v4.86z"/><path id="11" class="fil1" d="M352.01 41.52h-6.24v-2.09c-.41.34-.87.7-1.39 1.07-.52.39-.97.67-1.37.86-.5.24-.99.42-1.48.53-.49.12-1.07.18-1.75.18-2.29 0-4.11-.94-5.44-2.83-1.34-1.89-2.01-4.41-2.01-7.57 0-1.75.23-3.26.69-4.54.45-1.28 1.07-2.4 1.87-3.35.73-.87 1.61-1.55 2.65-2.06 1.04-.5 2.13-.75 3.29-.75 1.05 0 1.91.11 2.58.33.68.22 1.46.56 2.36 1.02v-8.54h6.24v27.74zm-6.24-5.51v-9.87c-.31-.15-.72-.28-1.22-.38-.5-.11-.94-.16-1.29-.16-1.51 0-2.64.53-3.4 1.58-.76 1.05-1.14 2.52-1.14 4.4 0 1.99.31 3.42.91 4.31.6.88 1.58 1.32 2.93 1.32.55 0 1.1-.11 1.67-.32.56-.21 1.07-.5 1.54-.88z"/><path id="12" class="fil0" d="M114.6 70.21l-.24.53c-1.24 2.57-2.07 4.4-2.48 5.49-.65 1.71-1 2.7-1.09 2.98-.25.8-.58 1.2-.98 1.2-.29 0-.53-.13-.73-.39-.18-.23-.27-.48-.27-.74 0-1.02 1.3-4.24 3.91-9.67-.47-.36-.7-.72-.7-1.07 0-.27.11-.51.35-.71.2-.17.42-.26.65-.26.17 0 .39.05.66.13 1.94-3.69 3.08-6.05 3.41-7.06-.3.17-.68.41-1.14.72-.26.16-.49.25-.7.25-.23 0-.41-.12-.55-.35a.84.84 0 0 1-.14-.48c0-.55.48-1.15 1.44-1.79.78-.51 1.49-.94 2.16-1.28.11-.28.17-.48.2-.59.11-.45.24-.75.37-.91.13-.15.33-.23.61-.23.56 0 .84.31.84.93.82-.23 1.54-.41 2.18-.53.63-.12 1.16-.18 1.6-.18 1.16 0 2.13.44 2.93 1.32.75.84 1.12 1.77 1.12 2.81 0 1.79-.74 3.59-2.24 5.38-1.28 1.53-2.87 2.72-4.77 3.57-1.64.73-3.28 1.09-4.92 1.09-.39 0-.89-.05-1.48-.16zm4.98-10.88c-.4 1.18-1.04 2.69-1.93 4.53-1.1 2.23-1.81 3.69-2.13 4.38.65.13 1.12.2 1.38.2 1.36 0 2.94-.55 4.74-1.64 1.76-1.08 3.13-2.4 4.11-3.98.61-.97.91-1.82.91-2.58 0-.67-.23-1.18-.68-1.52-.46-.34-1.15-.51-2.08-.51-.7 0-1.42.09-2.14.27-.72.19-1.45.47-2.18.85z"/><path id="13" class="fil0" d="M130.47 67.23c.96 0 1.45.59 1.45 1.78 0 1.58-.73 3.58-2.18 6-1.59 2.62-3.12 3.94-4.6 3.94-.69 0-1.2-.33-1.51-.97-.17-.32-.25-.7-.25-1.15 0-1.52.52-3.17 1.56-4.95.97-1.65 2.11-2.94 3.43-3.85.77-.53 1.47-.8 2.1-.8zm-1.85 6.73c-.29-.24-.44-.42-.44-.55 0-.1.19-.36.56-.79 1.08-1.2 1.61-2.17 1.61-2.9 0-.1-.03-.19-.09-.29a.46.46 0 0 0-.44-.27c-.38 0-.94.37-1.68 1.11-.95.95-1.67 1.93-2.17 2.94-.58 1.15-.88 2.11-.88 2.87 0 .21.06.38.16.54.16.21.36.32.59.32.57 0 1.18-.43 1.84-1.29.29-.35.52-.72.69-1.1.18-.38.27-.58.25-.59z"/><path id="14" class="fil0" d="M138.3 73.75c-1.02 1.38-1.77 2.33-2.26 2.85-.61.66-1.13 1.16-1.57 1.5-.5.37-.96.55-1.39.55-.42 0-.74-.2-.96-.62-.18-.32-.27-.68-.27-1.07 0-1.29.77-3.07 2.32-5.34 1.4-2.05 2.44-3.08 3.12-3.08.16 0 .32.08.48.23.14.14.21.31.21.5 0 .26-.23.63-.69 1.09-.99.97-1.85 2.07-2.58 3.3-.62 1.04-.93 1.73-.93 2.04 0 .24.11.36.33.36.71 0 2.25-1.54 4.64-4.63.77-1 1.24-1.57 1.4-1.73.31-.29.63-.43.95-.43.22 0 .4.06.56.18.12.12.19.24.19.38s-.29.73-.86 1.79c-1.3 2.27-1.95 3.81-1.95 4.6 0 .31.13.46.38.46.42 0 1.01-.49 1.76-1.48.71-.92 1.38-2.1 1.98-3.52.27-.61.5-1.43.7-2.43.24-1.15.72-1.73 1.43-1.73.41 0 .61.22.61.68 0 1.55-.87 3.69-2.6 6.41-1.81 2.85-3.33 4.26-4.56 4.26-.92 0-1.38-.56-1.38-1.69 0-.93.32-2.07.94-3.43z"/><path id="15" class="fil0" d="M147.29 75.3v.31c0 .26.07.49.19.68.3.43.79.65 1.47.65 1.49 0 3.2-1.15 5.15-3.43.35-.39.64-.58.87-.58.13 0 .25.06.36.19.07.1.11.19.11.27 0 .46-.57 1.25-1.71 2.36-.9.86-1.85 1.57-2.86 2.12-1.01.55-1.94.82-2.81.82-.9 0-1.6-.31-2.11-.92-.35-.43-.52-1.01-.52-1.75 0-2.01.94-3.97 2.83-5.9 1.53-1.56 2.87-2.35 4.01-2.35.31 0 .59.1.84.29.31.25.46.58.46.98 0 .63-.29 1.4-.87 2.32-1.2 1.9-3 3.21-5.41 3.94zm.4-1.39c.83-.29 1.49-.61 1.96-.97.83-.64 1.49-1.37 1.97-2.18.18-.28.27-.54.27-.76 0-.24-.12-.36-.34-.36-.3 0-.74.23-1.31.7-1.02.82-1.87 2-2.55 3.57z"/><path id="16" class="fil0" d="M159.15 72.87c1.17-1.25 2.51-2.47 4.03-3.66.55-.42 1.13-.83 1.75-1.2.31-.18.5-.27.59-.27.18 0 .35.13.53.39.11.14.16.27.16.39 0 .21-.22.5-.67.87-1.21.96-1.81 1.68-1.81 2.17 0 .27.15.41.46.41.51 0 1.38-.42 2.62-1.27.21-.14.39-.21.53-.21.1 0 .19.05.28.14.11.11.16.22.16.34 0 .36-.5.91-1.49 1.65-1.04.78-2.03 1.18-2.97 1.18-.37 0-.72-.1-1.04-.31-.28-.16-.41-.46-.41-.88 0-.3.13-.64.38-1.02-.95.66-2.05 1.81-3.33 3.43-.74.99-1.47 2.22-2.2 3.69-.27.55-.61.82-1.02.82-.44 0-.66-.21-.66-.62 0-.41.35-1.49 1.04-3.25 1.02-2.61 2.1-4.64 3.21-6.07.69-.9 1.27-1.34 1.73-1.34.16 0 .3.05.43.14.16.12.24.27.24.45s-.13.43-.36.75c-.05.05-.36.45-.95 1.19-.53.7-.94 1.4-1.23 2.09z"/><path id="17" class="fil0" d="M168.46 75.3v.31c0 .26.07.49.2.68.3.43.78.65 1.46.65 1.49 0 3.21-1.15 5.15-3.43.35-.39.64-.58.88-.58.13 0 .25.06.35.19.07.1.11.19.11.27 0 .46-.57 1.25-1.71 2.36-.89.86-1.84 1.57-2.85 2.12s-1.95.82-2.82.82c-.89 0-1.59-.31-2.11-.92-.35-.43-.52-1.01-.52-1.75 0-2.01.95-3.97 2.84-5.9 1.52-1.56 2.86-2.35 4-2.35.31 0 .59.1.84.29.31.25.46.58.46.98 0 .63-.29 1.4-.87 2.32-1.2 1.9-3 3.21-5.41 3.94zm.41-1.39c.82-.29 1.48-.61 1.95-.97.83-.64 1.49-1.37 1.98-2.18.17-.28.26-.54.26-.76 0-.24-.11-.36-.34-.36-.3 0-.74.23-1.31.7-1.02.82-1.87 2-2.54 3.57z"/><path id="18" class="fil0" d="M184.29 68.33c1.19-2.48 2.31-4.64 3.37-6.49 1.02-1.78 1.72-2.91 2.09-3.37.4-.51.78-.76 1.13-.76.19 0 .37.07.52.23.15.15.21.32.21.5 0 .27-.2.73-.6 1.37-1.73 2.78-3.3 5.6-4.74 8.47-1.69 3.33-2.53 5.83-2.53 7.49 0 .68.13 1.21.39 1.6.04.09.26.27.64.57.07.06.11.18.11.35 0 .24-.1.46-.28.66-.18.19-.39.29-.61.29-.28 0-.58-.17-.92-.49-.47-.47-.76-1.02-.85-1.64-.04-.26-.08-.75-.13-1.46-1.24 2.24-2.42 3.37-3.56 3.37-.65 0-1.16-.37-1.56-1.11-.26-.49-.39-1.03-.39-1.65 0-1.85.68-3.72 2.04-5.59 1.35-1.86 2.8-2.79 4.35-2.79.42 0 .87.15 1.32.45zm-.6 1.47c-.33-.23-.61-.35-.84-.35-1.01 0-1.96.62-2.86 1.84-1.18 1.6-1.77 3.14-1.77 4.63 0 .18.04.34.11.5.14.3.36.45.65.45.42 0 .92-.41 1.53-1.22.79-1.07 1.53-2.33 2.22-3.79.24-.5.47-.99.7-1.49 0 0 .05-.12.15-.34l.11-.23z"/><path id="19" class="fil0" d="M200.86 69.35c1.02-.86 1.93-1.28 2.74-1.28.5 0 .91.2 1.24.62.29.37.44.8.44 1.29 0 .93-.3 2.05-.91 3.37-.68 1.47-1.66 2.83-2.95 4.1-1.06 1.05-2.07 1.57-3.03 1.57-.36 0-.68-.07-.97-.2-.29-.13-.55-.32-.78-.59-.09.17-.15.28-.18.33-.2.43-.34.7-.42.79-.07.09-.2.14-.36.14-.21 0-.41-.12-.61-.37a.848.848 0 0 1-.19-.54c0-.33.68-2.01 2.05-5.05 1.91-4.23 4.12-8.44 6.64-12.63 1.02-1.71 1.64-2.71 1.87-3.01.25-.36.48-.54.7-.54.26 0 .49.14.7.4a.9.9 0 0 1 .19.58c0 .25-.11.57-.34.95-.04.08-.42.7-1.12 1.83-2.15 3.33-3.72 6.08-4.71 8.24zm-3.54 7.2c.18.24.36.42.55.54.18.12.38.18.58.18 1.04 0 2.13-.9 3.29-2.7.53-.82.96-1.62 1.27-2.42.27-.72.41-1.25.41-1.59 0-.25-.06-.42-.16-.53-.11-.12-.27-.17-.5-.17-.55 0-1.22.37-1.99 1.12-.77.74-1.54 1.81-2.29 3.21-.35.67-.66 1.29-.93 1.88-.15.32-.23.48-.23.48z"/><path id="20" class="fil0" d="M212.28 73.73c-1.05 1.24-1.9 2.17-2.53 2.78-1.24 1.18-2.28 1.78-3.12 1.78-.4 0-.72-.15-.96-.45-.18-.23-.27-.53-.27-.88 0-1.29.76-2.99 2.28-5.11 1.54-2.16 2.66-3.24 3.34-3.24.19 0 .36.09.5.25.13.13.2.29.2.47 0 .26-.07.48-.2.68-.14.19-.53.63-1.17 1.31-.67.7-1.29 1.45-1.86 2.27-.65.93-.97 1.6-.97 2.03 0 .25.12.37.36.37.48 0 1.37-.65 2.69-1.95.83-.82 1.47-1.51 1.94-2.07.09-.11.51-.68 1.25-1.69.66-.89 1.07-1.42 1.23-1.59.35-.42.68-.62.99-.62.19 0 .37.08.52.25.15.15.21.33.21.53 0 .35-.23.92-.71 1.73-.57.99-1.09 1.9-1.57 2.76-.75 1.33-1.32 2.52-1.73 3.57.76-.44 1.45-.98 2.07-1.63 1.05-1.07 1.7-1.86 1.94-2.38.22-.48.45-.72.68-.72.33 0 .5.17.5.51 0 .62-.53 1.56-1.6 2.81-1.27 1.5-2.84 2.78-4.7 3.84-1 2.4-1.95 4.39-2.84 5.97-1.67 2.91-3.39 4.37-5.17 4.37-.72 0-1.31-.28-1.75-.84-.35-.43-.52-.97-.52-1.63 0-1.85 1.31-3.74 3.91-5.68.76-.58 1.89-1.29 3.39-2.15.61-.34 1.08-.62 1.43-.84.21-.54.53-1.27.97-2.17.48-.98.9-1.86 1.27-2.64zm-3.29 7.03c-1.26.64-2.55 1.55-3.86 2.74-1.33 1.23-1.99 2.37-1.99 3.42 0 .23.07.42.19.57.18.22.41.33.7.33.89 0 1.87-.93 2.95-2.8.17-.31.66-1.34 1.45-3.09.17-.36.36-.75.56-1.17z"/><path id="21" class="fil0" d="M238.57 66.15c1.12.4 1.97.91 2.54 1.52.98 1.02 1.47 2.2 1.47 3.55 0 1.64-.49 3.18-1.48 4.64-.93 1.34-2.11 2.4-3.55 3.19-1.45.78-2.94 1.17-4.48 1.17-1.18 0-2.47-.3-3.85-.9-.11.31-.17.53-.19.64-.16.56-.4.84-.74.84-.34 0-.64-.2-.89-.59-.17-.28-.26-.56-.26-.84 0-.42.26-1.29.78-2.62 1.07-2.73 2.01-4.87 2.81-6.43.5-.96 1.53-2.79 3.1-5.49.69-1.16 1.68-2.75 2.98-4.76.31-.47.6-.95.89-1.44-.59.19-1.33.5-2.23.93-.76.35-1.2.53-1.34.53-.17 0-.33-.08-.46-.27a.994.994 0 0 1-.19-.62c0-.37.12-.63.37-.8.45-.32 1.26-.72 2.42-1.19 2.44-.99 4.4-1.48 5.9-1.48 1.26 0 2.28.31 3.07.94.78.63 1.17 1.42 1.17 2.37 0 1.96-1.13 3.65-3.4 5.08-1.37.86-2.85 1.53-4.44 2.03zm-2.67-1.08c2.02-.37 3.92-1.09 5.7-2.16 2.06-1.25 3.1-2.49 3.1-3.73 0-.57-.28-1.02-.83-1.34-.35-.21-.85-.32-1.49-.32-.41 0-.86.04-1.34.13-.47.09-.97.23-1.5.4.2.16.3.35.3.57 0 .31-.2.73-.59 1.26-.13.17-.37.53-.71 1.05-.14.23-.53.83-1.2 1.8-.65.97-1.13 1.75-1.44 2.34zm-6.17 12.74c.4.24.7.4.89.47.51.2 1.19.3 2.03.3 2.54 0 4.56-1 6.09-3 1.29-1.7 1.94-3.36 1.94-4.99 0-1.12-.49-2-1.48-2.65-.58-.38-1.26-.57-2.05-.57-.3 0-.74.07-1.32.2-.11.02-.22.03-.32.03-.29 0-.53-.2-.71-.62-.96 1.45-2.03 3.47-3.22 6.06-.6 1.32-1.22 2.92-1.85 4.77z"/><path id="22" class="fil0" d="M248.34 68.03c.2 0 .36.08.5.23.09.14.14.26.14.4 0 .21-.17.56-.52 1.07-1.23 1.91-2.11 3.48-2.63 4.72-.56 1.27-1.05 2.58-1.48 3.92-.18.6-.48.9-.88.9-.24 0-.43-.1-.58-.29a.8.8 0 0 1-.19-.5c0-.36.38-1.54 1.14-3.56.59-1.6 1.55-3.36 2.88-5.28.43-.64.75-1.06.96-1.27.22-.22.43-.34.66-.34zm3.38-6.61c.53 0 .8.28.8.82 0 .5-.26 1.06-.78 1.67-.5.58-.98.87-1.45.87-.22 0-.4-.08-.55-.25a.82.82 0 0 1-.21-.57c0-.57.31-1.18.94-1.83.46-.47.88-.71 1.25-.71z"/><path id="23" class="fil0" d="M251.81 72.62c.15-.14.3-.29.44-.43 2.48-2.43 4.13-3.65 4.97-3.65.47 0 .7.26.7.77 0 .36-.21.78-.62 1.26-2.27 2.66-3.4 4.99-3.4 7.01 0 .65.18 1.27.54 1.87.16.27.25.49.25.65 0 .14-.08.27-.22.4-.16.17-.34.25-.55.25-.48 0-.89-.31-1.22-.92-.32-.59-.48-1.29-.48-2.13 0-1.6.6-3.38 1.79-5.33-1.61 1.04-3.1 2.87-4.49 5.49-.36.64-.74.95-1.14.95-.21 0-.37-.07-.51-.21a.906.906 0 0 1-.25-.65c0-.63.73-2.32 2.2-5.04.78-1.47 1.4-2.54 1.85-3.21.46-.65.84-.98 1.17-.98.15 0 .3.08.45.22.16.17.25.36.25.57 0 .26-.17.64-.52 1.12-.5.73-.9 1.39-1.21 1.99z"/><path id="24" class="fil0" d="M263.11 75.77c-.39.69-.78 1.27-1.15 1.75-.75.93-1.49 1.39-2.23 1.39-.64 0-1.14-.3-1.5-.91-.22-.39-.34-.85-.34-1.39 0-1.32.42-2.77 1.25-4.37.93-1.78 2.05-3.13 3.36-4.09.85-.61 1.68-.92 2.47-.92.5 0 .92.15 1.26.46.28.27.42.58.42.93 0 .26-.1.63-.3 1.09.18.25.27.47.27.66 0 .25-.17.66-.5 1.23-.34.59-.69 1.36-1.03 2.33-.37 1.02-.55 1.84-.55 2.46 0 .5.14.91.44 1.23.09.08.33.22.73.41.3.14.45.39.45.75 0 .23-.08.41-.25.56-.18.15-.39.23-.62.23-.65 0-1.2-.3-1.67-.87-.39-.47-.58-1.05-.58-1.75 0-.24.02-.63.07-1.18zm2.24-5.88c-.14-.26-.3-.45-.47-.58a.892.892 0 0 0-.53-.18c-.91 0-1.89.79-2.95 2.37-1.17 1.76-1.76 3.24-1.76 4.45 0 .3.06.53.18.68.1.16.28.24.51.24.57 0 1.23-.61 2-1.83.42-.66.95-1.65 1.59-2.95.42-.84.72-1.4.91-1.68.1-.14.27-.31.52-.52z"/><path id="25" class="fil0" d="M270.58 72.87c1.16-1.25 2.51-2.47 4.03-3.66.54-.42 1.13-.83 1.74-1.2.31-.18.51-.27.59-.27.18 0 .36.13.54.39.1.14.16.27.16.39 0 .21-.23.5-.68.87-1.2.96-1.81 1.68-1.81 2.17 0 .27.16.41.47.41.5 0 1.38-.42 2.61-1.27.22-.14.39-.21.53-.21.1 0 .19.05.29.14.1.11.16.22.16.34 0 .36-.5.91-1.49 1.65-1.04.78-2.04 1.18-2.97 1.18-.38 0-.73-.1-1.05-.31-.27-.16-.41-.46-.41-.88 0-.3.13-.64.38-1.02-.94.66-2.05 1.81-3.33 3.43-.73.99-1.47 2.22-2.2 3.69-.27.55-.61.82-1.01.82-.45 0-.66-.21-.66-.62 0-.41.34-1.49 1.03-3.25 1.03-2.61 2.1-4.64 3.22-6.07.69-.9 1.26-1.34 1.73-1.34.15 0 .29.05.43.14.15.12.23.27.23.45s-.12.43-.36.75c-.04.05-.36.45-.94 1.19-.54.7-.95 1.4-1.23 2.09z"/><path id="26" class="fil0" d="M284.86 73.73c-1.05 1.24-1.89 2.17-2.52 2.78-1.25 1.18-2.29 1.78-3.12 1.78-.4 0-.73-.15-.96-.45-.18-.23-.27-.53-.27-.88 0-1.29.76-2.99 2.28-5.11 1.54-2.16 2.65-3.24 3.34-3.24.19 0 .35.09.5.25.13.13.19.29.19.47 0 .26-.06.48-.2.68-.14.19-.52.63-1.16 1.31-.67.7-1.29 1.45-1.86 2.27-.65.93-.97 1.6-.97 2.03 0 .25.12.37.36.37.48 0 1.37-.65 2.69-1.95.82-.82 1.47-1.51 1.94-2.07.09-.11.51-.68 1.24-1.69.67-.89 1.08-1.42 1.23-1.59.36-.42.69-.62 1-.62.19 0 .36.08.52.25.14.15.21.33.21.53 0 .35-.24.92-.71 1.73-.57.99-1.1 1.9-1.57 2.76-.75 1.33-1.33 2.52-1.73 3.57a9.42 9.42 0 0 0 2.06-1.63c1.06-1.07 1.71-1.86 1.94-2.38.23-.48.45-.72.69-.72.33 0 .49.17.49.51 0 .62-.52 1.56-1.59 2.81-1.27 1.5-2.84 2.78-4.7 3.84-1 2.4-1.95 4.39-2.84 5.97-1.67 2.91-3.39 4.37-5.17 4.37-.72 0-1.31-.28-1.75-.84-.35-.43-.52-.97-.52-1.63 0-1.85 1.3-3.74 3.91-5.68.76-.58 1.89-1.29 3.39-2.15.6-.34 1.08-.62 1.43-.84.2-.54.53-1.27.96-2.17.49-.98.91-1.86 1.27-2.64zm-3.29 7.03c-1.26.64-2.54 1.55-3.85 2.74-1.33 1.23-1.99 2.37-1.99 3.42 0 .23.06.42.19.57.18.22.41.33.69.33.89 0 1.88-.93 2.96-2.8.17-.31.66-1.34 1.45-3.09.17-.36.35-.75.55-1.17z"/><path id="27" class="fil0" d="M292.49 77.41c.27 0 .49.12.67.36.11.15.17.35.17.59 0 .56-.15 1.15-.46 1.76-.32.65-.75.98-1.27.98-.55 0-.82-.31-.82-.93 0-.62.19-1.24.57-1.89.35-.58.72-.87 1.14-.87z"/><path id="28" class="fil0" d="M304.8 67.67c.93 0 1.4.49 1.4 1.48 0 .87-.34 1.74-1.01 2.62-.53.67-.98 1-1.37 1-.34 0-.5-.19-.5-.57 0-.2.05-.36.14-.48.04-.05.18-.18.42-.41.22-.21.44-.5.67-.91.15-.28.23-.5.23-.66 0-.19-.11-.29-.32-.29-.25 0-.64.2-1.15.59-.81.63-1.62 1.62-2.43 2.97-.83 1.4-1.25 2.5-1.25 3.31 0 .27.08.5.23.7.23.31.53.47.92.47.74 0 1.63-.47 2.65-1.4.87-.8 1.6-1.6 2.19-2.4.31-.45.58-.66.8-.66.14 0 .25.06.36.17.09.12.14.24.14.36 0 .44-.57 1.3-1.69 2.57-1.8 2-3.43 3-4.89 3-.87 0-1.54-.32-2-.94-.33-.47-.5-1.01-.5-1.65 0-1.23.51-2.66 1.54-4.29.98-1.56 2.13-2.81 3.42-3.76.76-.55 1.43-.82 2-.82z"/><path id="29" class="fil0" d="M315.17 67.23c.97 0 1.46.59 1.46 1.78 0 1.58-.74 3.58-2.19 6-1.59 2.62-3.12 3.94-4.6 3.94-.69 0-1.19-.33-1.51-.97-.16-.32-.25-.7-.25-1.15 0-1.52.53-3.17 1.57-4.95.96-1.65 2.11-2.94 3.42-3.85.77-.53 1.47-.8 2.1-.8zm-1.84 6.73c-.3-.24-.45-.42-.45-.55 0-.1.19-.36.57-.79 1.07-1.2 1.61-2.17 1.61-2.9 0-.1-.04-.19-.1-.29a.46.46 0 0 0-.44-.27c-.38 0-.94.37-1.67 1.11-.95.95-1.68 1.93-2.18 2.94-.58 1.15-.87 2.11-.87 2.87 0 .21.05.38.16.54.15.21.35.32.59.32.57 0 1.18-.43 1.83-1.29.29-.35.52-.72.7-1.1.17-.38.26-.58.25-.59z"/><path id="30" class="fil0" d="M319.84 72.78c1-1.05 1.87-1.87 2.64-2.46 1.15-.9 1.93-1.34 2.32-1.34.19 0 .36.07.5.21.13.13.2.28.2.43 0 .22-.21.59-.63 1.1-.64.8-1.08 1.49-1.33 2.06 2.78-2.78 4.69-4.17 5.72-4.17.21 0 .39.07.55.2.16.15.25.32.25.53 0 .34-.26.77-.77 1.29-2.26 2.32-3.39 4.22-3.39 5.71 0 .6.1 1.04.31 1.3l.46.59c.09.1.14.24.14.41 0 .18-.08.37-.23.53-.18.19-.38.29-.6.29-.39 0-.75-.25-1.09-.76-.4-.59-.6-1.3-.6-2.11 0-1.09.31-2.18.93-3.3.22-.39.57-.92 1.07-1.57-1.01.76-2.04 1.82-3.08 3.16-.71.9-1.35 1.92-1.91 3.04-.28.54-.6.81-.96.81-.41 0-.61-.23-.61-.68 0-.49.33-1.5 1-3.03.38-.87.85-1.79 1.41-2.75-2.03 1.57-3.56 3.71-4.58 6.4-.26.6-.59.9-1.01.9-.19 0-.34-.08-.46-.22a.727.727 0 0 1-.2-.51c0-.71.39-1.97 1.18-3.81.81-1.94 1.74-3.68 2.77-5.23.71-1.08 1.26-1.62 1.65-1.62.36 0 .54.19.54.57 0 .16-.22.58-.66 1.25-.77 1.24-1.28 2.17-1.53 2.78z"/><path fill="none" d="M0 0h354.75v98.5H0z"/><path d="M52.54.82c25.84 0 46.8 20.95 46.8 46.8 0 25.84-20.96 46.79-46.8 46.79-25.84 0-46.8-20.95-46.8-46.79C5.74 21.77 26.7.82 52.54.82zm19.45 48.63l8.55 14.81-6.7-1.79A25.862 25.862 0 0 1 59.26 72.7c-11.24 3.01-22.75-1.84-28.67-11.19l-.03-.05 5.32-3.07-16.66-4.46-4.46 16.65 5.56-3.21c8.52 13.9 25.45 21.18 42 16.75 13.65-3.66 23.55-14.35 26.83-27.13.74-2.86-.97-5.8-3.83-6.56L78.5 48.6l-10.08-2.7c-.85-8.01-7.64-14.26-15.88-14.26-4.05 0-7.75 1.52-10.57 4.01l5.88 1.57-14.82 8.56-8.56-14.82 6.76 1.81c3.38-4.86 8.43-8.59 14.59-10.24 11.25-3.02 22.75 1.84 28.67 11.19l.01.02-5.36 3.1L85.8 41.3l4.46-16.66-5.51 3.19C76.22 13.94 59.3 6.68 42.76 11.11 29 14.8 19.07 25.62 15.85 38.53c-.7 2.85 1.01 5.76 3.85 6.52l1.28.34 5.6 1.5L36.7 49.6c.98 7.88 7.7 13.99 15.84 13.99 4.05 0 7.75-1.52 10.56-4L57.17 58l14.82-8.55z" fill="url(#id0)"/></g></g></svg>